<?xml version="1.0" encoding="UTF-8"?>
<svg height="100%" viewBox="0 487 8356 3233" width="100%" fill="#C0C0C0" image-rendering="optimizeSpeed" onload="SVG_doc_loaded(evt);" PB:pid="" xlink:xid="" xmlns:svg="OSI_SVG_20090601" xmlns:xlink="http://www.w3.org/1999/xlink" xmlns:PB="urn:osisoft-com-pb" xmlns:PBI="urn:osisoft-com-interface" xmlns:PBD="urn:osisoft-com-data" xmlns:xsi="http://www.w3.org/1999/XMLSchema/instance">
	<defs><PBD:DataSetUses tag="AF2_DS.\\JLEFEBVRENEW\JDIData\DataEven|Sensor" PB:Parent="AF2_DS" PB:BO="PWSPIDataSetsBO.CBODataSets">
			<PBI:Symbol name="Trend1_Plot0" PB:Type="10" PB:Parent="Trend1">
			</PBI:Symbol>
		</PBD:DataSetUses><PBD:DataSetUses tag="AF2_DS.\\JLEFEBVRENEW\JDIData\DataEven|Sensor|HiHi" PB:Parent="AF2_DS" PB:BO="PWSPIDataSetsBO.CBODataSets">
			<PBI:Symbol name="Trend1_Plot2" PB:Type="10" PB:Parent="Trend1">
			</PBI:Symbol>
		</PBD:DataSetUses><PBD:DataSetUses tag="AF2_DS.\\JLEFEBVRENEW\JDIData\DataEven|Sensor|LoLo" PB:Parent="AF2_DS" PB:BO="PWSPIDataSetsBO.CBODataSets">
			<PBI:Symbol name="Trend1_Plot1" PB:Type="10" PB:Parent="Trend1">
			</PBI:Symbol>
		</PBD:DataSetUses><PBD:DataSetUses tag="AF2_DS.\\JLEFEBVRENEW\JDIData\DataShort|Sensor" PB:Parent="AF2_DS" PB:BO="PWSPIDataSetsBO.CBODataSets">
			<PBI:Symbol name="Trend2_Plot0" PB:Type="10" PB:Parent="Trend2">
			</PBI:Symbol>
		</PBD:DataSetUses><PBD:DataSetUses tag="AF2_DS.\\JLEFEBVRENEW\JDIData\DataShort|Sensor|HiHi" PB:Parent="AF2_DS" PB:BO="PWSPIDataSetsBO.CBODataSets">
			<PBI:Symbol name="Trend2_Plot2" PB:Type="10" PB:Parent="Trend2">
			</PBI:Symbol>
		</PBD:DataSetUses><PBD:DataSetUses tag="AF2_DS.\\JLEFEBVRENEW\JDIData\DataShort|Sensor|LoLo" PB:Parent="AF2_DS" PB:BO="PWSPIDataSetsBO.CBODataSets">
			<PBI:Symbol name="Trend2_Plot1" PB:Type="10" PB:Parent="Trend2">
			</PBI:Symbol>
		</PBD:DataSetUses>
	</defs>
	<rect x="0" y="0" width="8356" height="3752" PB:DocMajorVersionNum="3" PB:DocMinorVersionNum="26" PB:DocGroup="1" PB:wnHeight="670" PB:wnWidth="1616" PB:wnState="2" PB:Zoom="50" PB:LocalID="1041" PB:DisplayServerTimeZone="True" PB:Type="55" PB:NamedValues="AFDisplayBuilder.Upgraded,1">
	</rect>
	<PB:Dataset id="AF2_DS" PB:Type="57" PB:Context="2" PB:Description="" PB:RefreshInterval="10000" PB:Stepped="False" PB:DSType="3" PB:DSVisible="True">
		<PB:DSDatapoint id="\\JLEFEBVRENEW\JDIData\DataEven|Sensor_DP"/>
		<PB:DSDatapoint id="\\JLEFEBVRENEW\JDIData\DataEven|Sensor|LoLo_DP"/>
		<PB:DSDatapoint id="\\JLEFEBVRENEW\JDIData\DataEven|Sensor|HiHi_DP"/>
		<PB:DSDatapoint id="\\JLEFEBVRENEW\JDIData\DataShort|Sensor_DP"/>
		<PB:DSDatapoint id="\\JLEFEBVRENEW\JDIData\DataShort|Sensor|LoLo_DP"/>
		<PB:DSDatapoint id="\\JLEFEBVRENEW\JDIData\DataShort|Sensor|HiHi_DP"/>
	</PB:Dataset>
	<PB:Dataset id="E_DS_DS" PB:Type="57" PB:Context="2" PB:Description="" PB:RefreshInterval="5000" PB:Stepped="False" PB:DSType="3" PB:DSVisible="False">
	</PB:Dataset>
	<PB:Dataset id="MODULEDB_DS" PB:Type="57" PB:Context="2" PB:Description="" PB:RefreshInterval="5000" PB:Stepped="False" PB:DSType="3" PB:DSVisible="False">
	</PB:Dataset>
	<g id="Trend1" PB:Type="10">
		<PB:TrendLogical id="Trend1_Logical" PB:ValueScalePosition="1" PB:BackgroundColor="8421504" PB:CurrentTrace="3" PB:DisplayScaleInside="True" PB:EnableScript="True" PB:Enabled="True" PB:EndTime="*+1m" PB:FillColor="16711680" PB:FontBold="False" PB:FontItalic="False" PB:FontName="Arial" PB:FontSize="10" PB:FontStrikethrough="False" PB:FontUnderline="False" PB:Height="2096" PB:IsMultiState="False" PB:Left="-14741" PB:LineColor="16777215" PB:MultipleScales="False" PB:Name="Trend1" PB:PlotTimeStyle="0" PB:Rotation="0" PB:ShowDescription="False" PB:ShowEngUnits="True" PB:ShowGrids="True" PB:ShowTagName="True" PB:ShowServerName="False" PB:ShowTitle="True" PB:ShowTraceMarkers="False" PB:ShowValue="True" PB:StartTime="*-5m" PB:Top="14937" PB:TraceCount="3" PB:TrendTitle="Plot-0" PB:Visible="True" PB:Width="4694">
			<PB:TraceElem id="PB:TraceElem_1" PB:ShowLinearRegression="False" PB:ScaleLogarithmic="False" PB:ScaleMax="Autorange" PB:ScaleMin="Autorange" PB:Trace="AF2.\\JLEFEBVRENEW\JDIData\DataEven|Sensor" PB:ScaleFormat="General" PB:DisplayDigits="-5" PB:CanonicalNumberFormat="General" PB:TagInfoType="1">
			</PB:TraceElem>
			<PB:TraceElem id="PB:TraceElem_2" PB:ShowLinearRegression="False" PB:ScaleLogarithmic="False" PB:ScaleMax="Autorange" PB:ScaleMin="Autorange" PB:Trace="AF2.\\JLEFEBVRENEW\JDIData\DataEven|Sensor|LoLo" PB:ScaleFormat="General" PB:DisplayDigits="-5" PB:CanonicalNumberFormat="General" PB:TagInfoType="1">
			</PB:TraceElem>
			<PB:TraceElem id="PB:TraceElem_3" PB:ShowLinearRegression="False" PB:ScaleLogarithmic="False" PB:ScaleMax="Autorange" PB:ScaleMin="Autorange" PB:Trace="AF2.\\JLEFEBVRENEW\JDIData\DataEven|Sensor|HiHi" PB:ScaleFormat="General" PB:DisplayDigits="-5" PB:CanonicalNumberFormat="General" PB:TagInfoType="1">
			</PB:TraceElem>
			<PB:Format id="PB:Format_1" PB:Name="Horz. Axis" PB:LineColor="0" PB:LineStyle="0" PB:LineWidth="1" PB:MarkerStyle="-1">
			</PB:Format>
			<PB:Format id="PB:Format_2" PB:Name="Background" PB:LineColor="8421504" PB:LineStyle="-1" PB:LineWidth="1" PB:MarkerStyle="-1">
			</PB:Format>
			<PB:Format id="PB:Format_3" PB:Name="Horz. Major Grid" PB:LineColor="0" PB:LineStyle="0" PB:LineWidth="1" PB:MarkerStyle="-1">
			</PB:Format>
			<PB:Format id="PB:Format_4" PB:Name="Horz. Minor Grid" PB:LineColor="0" PB:LineStyle="0" PB:LineWidth="1" PB:MarkerStyle="-1">
			</PB:Format>
			<PB:Format id="PB:Format_5" PB:Name="Pen 1" PB:LineColor="65280" PB:LineStyle="0" PB:LineWidth="1" PB:MarkerStyle="0">
			</PB:Format>
			<PB:Format id="PB:Format_6" PB:Name="Pen 2" PB:LineColor="16776960" PB:LineStyle="0" PB:LineWidth="1" PB:MarkerStyle="1">
			</PB:Format>
			<PB:Format id="PB:Format_7" PB:Name="Pen 3" PB:LineColor="65535" PB:LineStyle="0" PB:LineWidth="1" PB:MarkerStyle="2">
			</PB:Format>
			<PB:Format id="PB:Format_8" PB:Name="Pen 4" PB:LineColor="16711935" PB:LineStyle="0" PB:LineWidth="1" PB:MarkerStyle="3">
			</PB:Format>
			<PB:Format id="PB:Format_9" PB:Name="Pen 5" PB:LineColor="255" PB:LineStyle="0" PB:LineWidth="1" PB:MarkerStyle="4">
			</PB:Format>
			<PB:Format id="PB:Format_10" PB:Name="Pen 6" PB:LineColor="16777215" PB:LineStyle="0" PB:LineWidth="1" PB:MarkerStyle="5">
			</PB:Format>
			<PB:Format id="PB:Format_11" PB:Name="Pen 7" PB:LineColor="16711680" PB:LineStyle="0" PB:LineWidth="1" PB:MarkerStyle="6">
			</PB:Format>
			<PB:Format id="PB:Format_12" PB:Name="Pen 8" PB:LineColor="0" PB:LineStyle="0" PB:LineWidth="1" PB:MarkerStyle="7">
			</PB:Format>
			<PB:Format id="PB:Format_13" PB:Name="Pen 9" PB:LineColor="8388608" PB:LineStyle="0" PB:LineWidth="1" PB:MarkerStyle="8">
			</PB:Format>
			<PB:Format id="PB:Format_14" PB:Name="Pen 10" PB:LineColor="32768" PB:LineStyle="0" PB:LineWidth="1" PB:MarkerStyle="9">
			</PB:Format>
			<PB:Format id="PB:Format_15" PB:Name="Pen 11" PB:LineColor="8388736" PB:LineStyle="0" PB:LineWidth="1" PB:MarkerStyle="10">
			</PB:Format>
			<PB:Format id="PB:Format_16" PB:Name="Pen 12" PB:LineColor="8433626" PB:LineStyle="0" PB:LineWidth="1" PB:MarkerStyle="11">
			</PB:Format>
			<PB:Format id="PB:Format_17" PB:Name="Text" PB:LineColor="16777215" PB:LineStyle="-1" PB:LineWidth="1" PB:MarkerStyle="-1">
			</PB:Format>
			<PB:Format id="PB:Format_18" PB:Name="Vert. Axis" PB:LineColor="0" PB:LineStyle="0" PB:LineWidth="1" PB:MarkerStyle="-1">
			</PB:Format>
			<PB:Format id="PB:Format_19" PB:Name="Vert. Major Grid" PB:LineColor="0" PB:LineStyle="0" PB:LineWidth="1" PB:MarkerStyle="-1">
			</PB:Format>
			<PB:Format id="PB:Format_20" PB:Name="Vert. Minor Grid" PB:LineColor="0" PB:LineStyle="0" PB:LineWidth="1" PB:MarkerStyle="-1">
			</PB:Format>
		</PB:TrendLogical>
		<svg id="Trend1_Graphical" height="2096" width="4694" x="259" y="63">
			<PB:RefreshData id="Trend1_RefreshData" PB:bEngUnits="True" PB:bLogarithmic="False" PB:bMarkers="False" PB:bTagname="True" PB:bValue="True" PB:fXUnits="10.608333333333333333333333333" PB:iGrdBegX="6" PB:iGrdBegY="41" PB:iGrdHght="2004" PB:iGrdWdth="3819" PB:iMinPerCol="1" PB:iNumTrcs="3" PB:iNumXCols="0" PB:bGrids="True" PB:Updateable="True" PB:iSnglLnHght="33" PB:iScaleWidth="0" PB:bOmitScaleText="False" PB:bOmitTimeText="False">
			</PB:RefreshData>
			<rect id="Trend1_Background" x="0" y="0" width="4694" height="2096" fill="#808080">
			</rect>
			<g id="Trend1_PlotTitleGroup" style="font-family:Arial;font-size:33;stroke:#FFFFFF;fill:#FFFFFF;">
				<text x="6" y="33" style="font-family:Arial;font-size:33;stroke:#FFFFFF;fill:#FFFFFF;">Plot-0</text>
			</g>
			<svg id="Trend1_AxesGroup" height="2004" width="3819" x="6" y="41">
				<rect id="Trend1_GridBackground" x="0" y="0" width="3819" height="2004" style="fill:#808080;stroke:none;">
				</rect>
				<polyline id="Trend1_VertAxis_1" style="stroke-width:3;fill:none;stroke:#000000;" points="0,0 0,2004">
				</polyline>
				<polyline id="Trend1_VertAxis_Last" style="stroke-width:3;fill:none;stroke:#000000;stroke-dasharray:10 10 10 10;" points="3819,0 3819,2004">
				</polyline>
				<polyline id="Trend1_HorizAxis" style="stroke-width:3;fill:none;stroke:#000000;" points="0,2004 3819,2004">
				</polyline>
			</svg>
			<svg id="Trend1_GridGroup" height="2004" width="3819" x="6" y="41">
				<path id="Trend1_HorizGridLine" style="stroke-width:2;stroke:#000000;" d="M615,0 L615,2004">
				</path>
				<path id="Trend1_HorizGridLine" style="stroke-width:2;stroke:#000000;" d="M1252,0 L1252,2004">
				</path>
				<path id="Trend1_HorizGridLine" style="stroke-width:2;stroke:#000000;" d="M1888,0 L1888,2004">
				</path>
				<path id="Trend1_HorizGridLine" style="stroke-width:2;stroke:#000000;" d="M2525,0 L2525,2004">
				</path>
				<path id="Trend1_HorizGridLine" style="stroke-width:2;stroke:#000000;" d="M3161,0 L3161,2004">
				</path>
				<path id="Trend1_HorizGridLine" style="stroke-width:2;stroke:#000000;" d="M3798,0 L3798,2004">
				</path>
				<path id="Trend1_VertGridLine" style="stroke-width:2;stroke:#000000" d="M0,2085.63 L3819,2085.63">
				</path>
				<path id="Trend1_VertGridLine" style="stroke-width:2;stroke:#000000" d="M0,1847.02 L3819,1847.02">
				</path>
				<path id="Trend1_VertGridLine" style="stroke-width:2;stroke:#000000" d="M0,1608.4 L3819,1608.4">
				</path>
				<path id="Trend1_VertGridLine" style="stroke-width:2;stroke:#000000" d="M0,1369.79 L3819,1369.79">
				</path>
				<path id="Trend1_VertGridLine" style="stroke-width:2;stroke:#000000" d="M0,1131.18 L3819,1131.18">
				</path>
				<path id="Trend1_VertGridLine" style="stroke-width:2;stroke:#000000" d="M0,892.56 L3819,892.56">
				</path>
				<path id="Trend1_VertGridLine" style="stroke-width:2;stroke:#000000" d="M0,653.95 L3819,653.95">
				</path>
				<path id="Trend1_VertGridLine" style="stroke-width:2;stroke:#000000" d="M0,415.34 L3819,415.34">
				</path>
				<path id="Trend1_VertGridLine" style="stroke-width:2;stroke:#000000" d="M0,176.72 L3819,176.72">
				</path>
				<path id="Trend1_VertGridLine" style="stroke-width:2;stroke:#000000" d="M0,0 L3819,0">
				</path>
			</svg>
			<g id="Trend1_XScaleTextGroup" style="font-family:Arial;font-size:33;stroke:#FFFFFF;fill:#FFFFFF;">
				<text id="Trend1_XScaleTextBegin" x="6" y="2080" style="font-family:Arial;font-size:33;stroke:#FFFFFF;fill:#FFFFFF;">2016/05/08 14:32:02</text>
				<text id="Trend1_XScaleTextSpan" x="1792" y="2080" style="font-family:Arial;font-size:33;stroke:#FFFFFF;fill:#FFFFFF;">6.00 minutes</text>
				<text id="Trend1_XScaleTextEnd" x="3440" y="2080" style="font-family:Arial;font-size:33;stroke:#FFFFFF;fill:#FFFFFF;">2016/05/08 14:38:02</text>
			</g>
			<g id="Trend1_TagNameGroup" transform="translate(3851,43)">
				<circle id="Trend1_0" cx="0.5" cy="17" r="8" style="stroke-width:2;stroke:#00FF00;fill:#00FF00;">
				</circle>
				<text id="Trend1_TagName0" x="19.1860465116279" y="33" style="font-family:Arial;font-size:33;stroke:#00FF00;fill:#00FF00;">DataEven.Sensor</text>
				<text id="Trend1_TagValue0" x="19.1860465116279" y="68" style="font-family:Arial;font-size:33;stroke:#00FF00;fill:#00FF00;">0.10453</text>
				<text id="Trend1_EngUnits0" x="19.1860465116279" y="103" style="font-family:Arial;font-size:33;stroke:#00FF00;fill:#00FF00;">
				</text>
				<circle id="Trend1_1" cx="0.5" cy="122" r="8" style="stroke-width:2;stroke:#00FFFF;fill:none;">
				</circle>
				<text id="Trend1_TagName1" x="19.1860465116279" y="138" style="font-family:Arial;font-size:33;stroke:#00FFFF;fill:#00FFFF;">OSIDemo_DataEven.LoLo</text>
				<text id="Trend1_TagValue1" x="19.1860465116279" y="173" style="font-family:Arial;font-size:33;stroke:#00FFFF;fill:#00FFFF;">No Data</text>
				<text id="Trend1_EngUnits1" x="19.1860465116279" y="208" style="font-family:Arial;font-size:33;stroke:#00FFFF;fill:#00FFFF;">
				</text>
				<polygon id="Trend1_2" points="-5.5,221 6.5,221 6.5,233 -5.5,233 -5.5,221" style="stroke-width:2;stroke:#FFFF00;fill:#FFFF00;" transform="rotate(45,0.5,227) ">
				</polygon>
				<text id="Trend1_TagName2" x="19.1860465116279" y="243" style="font-family:Arial;font-size:33;stroke:#FFFF00;fill:#FFFF00;">OSIDemo_DataEven.HH</text>
				<text id="Trend1_TagValue2" x="19.1860465116279" y="278" style="font-family:Arial;font-size:33;stroke:#FFFF00;fill:#FFFF00;">No Data</text>
				<text id="Trend1_EngUnits2" x="19.1860465116279" y="313" style="font-family:Arial;font-size:33;stroke:#FFFF00;fill:#FFFF00;">
				</text>
			</g>
			<svg id="Trend1_TraceGroup" height="2004" width="3819" style="font-family:Arial;font-size:33;stroke:#FFFFFF;fill:#FFFFFF;" x="6" y="41">
				<path id="Trend1_Plot0" style="font-family:Arial;font-size:33;stroke:#00FF00;fill:none;stroke-width:2;" d="M10.6083333333333,728.605380776677 L21.2166666666667,753.17170782817 L31.825,777.466076761151 L42.4333333333333,801.421898399056 L53.0416666666667,824.973511499925 L63.65,848.056362729301 L74.2583333333333,870.607183596433 L84.8666666666667,892.564163868813 L95.475,913.867120989724 L106.083333333333,934.45766503445 L116.691666666667,954.279358752995 L127.3,973.277872260665 L137.908333333333,991.401131952505 L148.516666666667,1008.59946323343 L159.125,1024.82572667285 L169.733333333333,1040.03544721054 L180.341666666667,1054.18693605973 L190.95,1067.24140497314 L201.558333333333,1079.16307255888 L212.166666666667,1089.91926235476 L222.775,1099.4804923922 L233.383333333333,1107.82055600428 L243.991666666667,1114.91659365633 L254.6,1120.7491556024 L318.25,179.337817408223 L328.858333333333,182.598974919054 L339.466666666667,187.152074512253 L350.075,192.984636458318 L360.683333333333,200.08067411037 L371.291666666667,208.420737722445 L381.9,217.981967759893 L392.508333333333,228.738157555774 L403.116666666667,240.659825141511 L413.725,253.714294054917 L424.333333333333,267.865782904105 L434.941666666667,283.075503441797 L445.55,299.301766881215 L456.158333333333,316.500098162144 L466.766666666667,334.623357853985 L477.375,353.621871361654 L487.983333333333,373.443565080199 L498.591666666667,394.034109124925 L509.2,415.337066245837 L519.808333333333,437.294046518216 L530.416666666667,459.844867385348 L541.025,482.927718614724 L551.633333333333,506.479331715593 L562.241666666667,530.435153353499 L572.85,554.72952228648 L583.458333333333,579.295849337972 L594.066666666667,604.066799913112 L604.675,628.974478558181 L615.283333333333,653.950615057325 L625.891666666667,653.950615057325 L636.5,653.950615057325 L647.108333333333,653.950615057325 L657.716666666667,653.950615057325 L668.325,653.950615057325 L678.933333333333,653.950615057325 L689.541666666667,653.950615057325 L700.15,653.950615057325 L710.758333333333,653.950615057325 L721.366666666667,653.950615057325 L731.975,653.950615057325 L742.583333333333,653.950615057325 L753.191666666667,653.950615057325 L763.8,653.950615057325 L774.408333333333,653.950615057325 L785.016666666667,653.950615057325 L795.625,653.950615057325 L806.233333333333,653.950615057325 L816.841666666667,653.950615057325 L827.45,653.950615057325 L838.058333333333,653.950615057325 L848.666666666667,653.950615057325 L859.275,653.950615057325 L869.883333333333,653.950615057325 L880.491666666667,653.950615057325 L891.1,653.950615057325 L901.708333333333,653.950615057325 L912.316666666667,653.950615057325 L922.925,653.950615057325 L933.533333333333,653.950615057325 L944.141666666667,653.950615057325 L954.75,653.950615057325 L965.358333333333,653.950615057325 L975.966666666667,653.950615057325 L986.575,653.950615057325 L997.183333333333,653.950615057325 L1007.79166666667,653.950615057325 L1018.4,653.950615057325 L1029.00833333333,653.950615057325 L1039.61666666667,653.950615057325 L1050.225,653.950615057325 L1060.83333333333,653.950615057325 L1071.44166666667,653.950615057325 L1082.05,653.950615057325 L1092.65833333333,653.950615057325 L1103.26666666667,653.950615057325 L1113.875,653.950615057325 L1124.48333333333,653.950615057325 L1135.09166666667,653.950615057325 L1145.7,653.950615057325 L1156.30833333333,653.950615057325 L1166.91666666667,653.950615057325 L1177.525,653.950615057325 L1188.13333333333,653.950615057325 L1198.74166666667,653.950615057325 L1209.35,653.950615057325 L1219.95833333333,653.950615057325 L1230.56666666667,653.950615057325 L1241.175,653.950615057325 L1251.78333333333,653.950615057325 L1262.39166666667,628.974478558182 L1273,604.066799913113 L1283.60833333333,579.295849337972 L1294.21666666667,554.72952228648 L1304.825,530.435153353499 L1315.43333333333,506.479331715593 L1326.04166666667,482.927718614724 L1336.65,459.844867385348 L1347.25833333333,437.294046518216 L1357.86666666667,415.337066245837 L1368.475,394.034109124925 L1379.08333333333,373.443565080199 L1389.69166666667,353.621871361655 L1400.3,334.623357853985 L1410.90833333333,316.500098162144 L1421.51666666667,299.301766881215 L1432.125,283.075503441797 L1442.73333333333,267.865782904105 L1453.34166666667,253.714294054917 L1463.95,240.659825141511 L1474.55833333333,228.738157555774 L1485.16666666667,217.981967759893 L1495.775,208.420737722445 L1506.38333333333,200.08067411037 L1516.99166666667,192.984636458318 L1527.6,187.152074512253 L1538.20833333333,182.598974919054 L1548.81666666667,179.337817408223 L1559.425,177.377540585817 L1570.03333333333,176.723517434349 L1580.64166666667,177.377540585817 L1591.25,179.337817408223 L1601.85833333333,182.598974919054 L1612.46666666667,187.152074512253 L1623.075,192.984636458318 L1633.68333333333,200.08067411037 L1644.29166666667,208.420737722445 L1654.9,217.981967759893 L1665.50833333333,228.738157555774 L1676.11666666667,240.659825141511 L1686.725,253.714294054917 L1697.33333333333,267.865782904105 L1707.94166666667,283.075503441797 L1718.55,299.301766881215 L1729.15833333333,316.500098162144 L1739.76666666667,334.623357853985 L1750.375,353.621871361654 L1760.98333333333,373.443565080199 L1771.59166666667,394.034109124925 L1782.2,415.337066245837 L1792.80833333333,437.294046518216 L1803.41666666667,459.844867385348 L1814.025,482.927718614724 L1824.63333333333,506.479331715593 L1835.24166666667,530.435153353499 L1845.85,554.72952228648 L1856.45833333333,579.295849337972 L1867.06666666667,604.066799913112 L1877.675,628.974478558181 L1888.28333333333,653.950615057325 L1898.89166666667,653.950615057325 L1909.5,653.950615057325 L1920.10833333333,653.950615057325 L1930.71666666667,653.950615057325 L1941.325,653.950615057325 L1951.93333333333,653.950615057325 L1962.54166666667,653.950615057325 L1973.15,653.950615057325 L1983.75833333333,653.950615057325 L1994.36666666667,653.950615057325 L2004.975,653.950615057325 L2015.58333333333,653.950615057325 L2026.19166666667,653.950615057325 L2036.8,653.950615057325 L2047.40833333333,653.950615057325 L2058.01666666667,653.950615057325 L2068.625,653.950615057325 L2079.23333333333,653.950615057325 L2089.84166666667,653.950615057325 L2100.45,653.950615057325 L2111.05833333333,653.950615057325 L2121.66666666667,653.950615057325 L2132.275,653.950615057325 L2142.88333333333,653.950615057325 L2153.49166666667,653.950615057325 L2164.1,653.950615057325 L2174.70833333333,653.950615057325 L2185.31666666667,653.950615057325 L2195.925,653.950615057325 L2206.53333333333,653.950615057325 L2217.14166666667,653.950615057325 L2227.75,653.950615057325 L2238.35833333333,653.950615057325 L2248.96666666667,653.950615057325 L2259.575,653.950615057325 L2270.18333333333,653.950615057325 L2280.79166666667,653.950615057325 L2291.4,653.950615057325 L2302.00833333333,653.950615057325 L2312.61666666667,653.950615057325 L2323.225,653.950615057325 L2333.83333333333,653.950615057325 L2344.44166666667,653.950615057325 L2355.05,653.950615057325 L2365.65833333333,653.950615057325 L2376.26666666667,653.950615057325 L2386.875,653.950615057325 L2397.48333333333,653.950615057325 L2408.09166666667,653.950615057325 L2418.7,653.950615057325 L2429.30833333333,653.950615057325 L2439.91666666667,653.950615057325 L2450.525,653.950615057325 L2461.13333333333,653.950615057325 L2471.74166666667,653.950615057325 L2482.35,653.950615057325 L2492.95833333333,653.950615057325 L2503.56666666667,653.950615057325 L2514.175,653.950615057325 L2524.78333333333,653.950615057325 L2535.39166666667,628.974478558182 L2546,604.066799913113 L2556.60833333333,579.295849337972 L2567.21666666667,554.72952228648 L2577.825,530.435153353499 L2588.43333333333,506.479331715593 L2599.04166666667,482.927718614724 L2609.65,459.844867385348 L2620.25833333333,437.294046518216 L2630.86666666667,415.337066245837 L2641.475,394.034109124925 L2652.08333333333,373.443565080199 L2662.69166666667,353.621871361655 L2673.3,334.623357853985 L2683.90833333333,316.500098162144 L2694.51666666667,299.301766881215 L2705.125,283.075503441797 L2715.73333333333,267.865782904105 L2726.34166666667,253.714294054917 L2736.95,240.659825141511 L2747.55833333333,228.738157555774 L2758.16666666667,217.981967759893 L2768.775,208.420737722445 L2779.38333333333,200.08067411037 L2789.99166666667,192.984636458318 L2800.6,187.152074512253 L2811.20833333333,182.598974919054 L2821.81666666667,179.337817408223 L2832.425,177.377540585817 L2843.03333333333,176.723517434349 L2853.64166666667,177.377540585817 L2864.25,179.337817408223 L2874.85833333333,182.598974919054 L2885.46666666667,187.152074512253 L2896.075,192.984636458318 L2906.68333333333,200.08067411037 L2917.29166666667,208.420737722445 L2927.9,217.981967759893 L2938.50833333333,228.738157555774 L2949.11666666667,240.659825141511 L2959.725,253.714294054917 L2970.33333333333,267.865782904105 L2980.94166666667,283.075503441797 L2991.55,299.301766881215 L3002.15833333333,316.500098162144 L3012.76666666667,334.623357853985 L3023.375,353.621871361654 L3033.98333333333,373.443565080199 L3044.59166666667,394.034109124925 L3055.2,415.337066245837 L3065.80833333333,437.294046518216 L3076.41666666667,459.844867385348 L3087.025,482.927718614724 L3097.63333333333,506.479331715593 L3108.24166666667,530.435153353499 L3118.85,554.72952228648 L3129.45833333333,579.295849337972 L3140.06666666667,604.066799913112 L3182.5,604.066799913112 " PBD:DatasetName="AF2_DS" PBD:DatasetColumn="\\JLEFEBVRENEW\JDIData\DataEven|Sensor">
				</path>
				<path id="Trend1_Plot1" style="font-family:Arial;font-size:33;stroke:#00FFFF;fill:none;stroke-width:2;" d="M10.6083333333333,728.605380776677 L21.2166666666667,728.605380776677 L21.2166666666667,753.171707828169 L31.825,753.171707828169 L31.825,777.466076761151 L42.4333333333333,777.466076761151 L42.4333333333333,801.421898399056 L53.0416666666667,801.421898399056 L53.0416666666667,824.973511499925 L63.65,824.973511499925 L63.65,848.056362729301 L74.2583333333333,848.056362729301 L74.2583333333333,870.607183596433 L84.8666666666667,870.607183596433 L84.8666666666667,892.564163868813 L95.475,892.564163868813 L95.475,913.867120989725 L106.083333333333,913.867120989725 L106.083333333333,934.45766503445 L116.691666666667,934.45766503445 L116.691666666667,954.279358752995 L127.3,954.279358752995 L127.3,973.277872260664 L137.908333333333,973.277872260664 L137.908333333333,991.401131952505 L148.516666666667,991.401131952505 L148.516666666667,1008.59946323343 L159.125,1008.59946323343 L159.125,1024.82572667285 L169.733333333333,1024.82572667285 L169.733333333333,1040.03544721054 L180.341666666667,1040.03544721054 L180.341666666667,1054.18693605973 L190.95,1054.18693605973 L190.95,1067.24140497314 L201.558333333333,1067.24140497314 L201.558333333333,1079.16307255888 L212.166666666667,1079.16307255888 L212.166666666667,1089.91926235476 L222.775,1089.91926235476 L222.775,1099.4804923922 L233.383333333333,1099.4804923922 L233.383333333333,1107.82055600428 L243.991666666667,1107.82055600428 L243.991666666667,1114.91659365633 L254.6,1114.91659365633 L254.6,1120.7491556024 L265.208333333333,1120.7491556024 L265.208333333333,1125.3022551956 L275.816666666667,1125.3022551956 L275.816666666667,1128.56341270643 L286.425,1128.56341270643 L286.425,1130.52368952883 L297.033333333333,1130.52368952883 L297.033333333333,1131.1777126803 L307.641666666667,1131.1777126803 L307.641666666667,1130.52368952883 L318.25,1130.52368952883 L318.25,1128.56341270643 L328.858333333333,1128.56341270643 L328.858333333333,1125.3022551956 L339.466666666667,1125.3022551956 L339.466666666667,1120.7491556024 L350.075,1120.7491556024 L350.075,1114.91659365633 L360.683333333333,1114.91659365633 L360.683333333333,1107.82055600428 L371.291666666667,1107.82055600428 L371.291666666667,1099.4804923922 L381.9,1099.4804923922 L381.9,1089.91926235476 L392.508333333333,1089.91926235476 L392.508333333333,1079.16307255888 L403.116666666667,1079.16307255888 L403.116666666667,1067.24140497314 L413.725,1067.24140497314 L413.725,1054.18693605973 L424.333333333333,1054.18693605973 L424.333333333333,1040.03544721054 L434.941666666667,1040.03544721054 L434.941666666667,1024.82572667285 L445.55,1024.82572667285 L445.55,1008.59946323343 L456.158333333333,1008.59946323343 L456.158333333333,991.401131952506 L466.766666666667,991.401131952506 L466.766666666667,973.277872260665 L477.375,973.277872260665 L477.375,954.279358752995 L487.983333333333,954.279358752995 L487.983333333333,934.45766503445 L498.591666666667,934.45766503445 L498.591666666667,913.867120989725 L509.2,913.867120989725 L509.2,892.564163868813 L519.808333333333,892.564163868813 L519.808333333333,870.607183596433 L530.416666666667,870.607183596433 L530.416666666667,848.056362729301 L541.025,848.056362729301 L541.025,824.973511499926 L551.633333333333,824.973511499926 L551.633333333333,801.421898399056 L562.241666666667,801.421898399056 L562.241666666667,777.466076761151 L572.85,777.466076761151 L572.85,753.17170782817 L583.458333333333,753.17170782817 L583.458333333333,728.605380776677 L594.066666666667,728.605380776677 L594.066666666667,703.834430201537 L604.675,703.834430201537 L604.675,678.926751556468 L615.283333333333,678.926751556468 L615.283333333333,653.950615057325 L626,654 M1251.78333333333,653.950615057325 L1262.39166666667,647 L1262.39166666667,678.926751556468 L1273,678.926751556468 L1273,703.834430201537 L1283.60833333333,703.834430201537 L1283.60833333333,728.605380776677 L1294.21666666667,728.605380776677 L1294.21666666667,753.171707828169 L1304.825,753.171707828169 L1304.825,777.466076761151 L1315.43333333333,777.466076761151 L1315.43333333333,801.421898399056 L1326.04166666667,801.421898399056 L1326.04166666667,824.973511499925 L1336.65,824.973511499925 L1336.65,848.056362729301 L1347.25833333333,848.056362729301 L1347.25833333333,870.607183596433 L1357.86666666667,870.607183596433 L1357.86666666667,892.564163868813 L1368.475,892.564163868813 L1368.475,913.867120989725 L1379.08333333333,913.867120989725 L1379.08333333333,934.45766503445 L1389.69166666667,934.45766503445 L1389.69166666667,954.279358752995 L1400.3,954.279358752995 L1400.3,973.277872260664 L1410.90833333333,973.277872260664 L1410.90833333333,991.401131952505 L1421.51666666667,991.401131952505 L1421.51666666667,1008.59946323343 L1432.125,1008.59946323343 L1432.125,1024.82572667285 L1442.73333333333,1024.82572667285 L1442.73333333333,1040.03544721054 L1453.34166666667,1040.03544721054 L1453.34166666667,1054.18693605973 L1463.95,1054.18693605973 L1463.95,1067.24140497314 L1474.55833333333,1067.24140497314 L1474.55833333333,1079.16307255888 L1485.16666666667,1079.16307255888 L1485.16666666667,1089.91926235476 L1495.775,1089.91926235476 L1495.775,1099.4804923922 L1506.38333333333,1099.4804923922 L1506.38333333333,1107.82055600428 L1516.99166666667,1107.82055600428 L1516.99166666667,1114.91659365633 L1527.6,1114.91659365633 L1527.6,1120.7491556024 L1538.20833333333,1120.7491556024 L1538.20833333333,1239.60108618096 L1548.81666666667,1239.60108618096 L1548.81666666667,1356.24647011546 L1559.425,1356.24647011546 L1559.425,1470.67004089242 L1570.03333333333,1470.67004089242 L1570.03333333333,1582.86262183382 L1580.64166666667,1582.86262183382 L1580.64166666667,1692.82115124968 L1591.25,1692.82115124968 L1591.25,1800.54869082997 L1601.85833333333,1800.54869082997 L1601.85833333333,1792.67019082906 L1612.46666666667,1792.67019082906 L1612.46666666667,1781.67053962238 L1623.075,1781.67053962238 L1623.075,1767.57988648933 L1633.68333333333,1767.57988648933 L1633.68333333333,1750.4368529307 L1644.29166666667,1750.4368529307 L1644.29166666667,1730.28842680988 L1654.9,1730.28842680988 L1654.9,1707.18983356238 L1665.50833333333,1707.18983356238 L1665.50833333333,1681.20438482671 L1676.11666666667,1681.20438482671 L1676.11666666667,1652.40330491164 L1686.725,1652.40330491164 L1686.725,1620.86553557527 L1697.33333333333,1620.86553557527 L1697.33333333333,1586.6775196512 L1707.94166666667,1586.6775196512 L1707.94166666667,1549.93296411468 L1718.55,1549.93296411468 L1718.55,1510.73258323837 L1729.15833333333,1510.73258323837 L1729.15833333333,1469.18382254146 L1739.76666666667,1469.18382254146 L1739.76666666667,1425.400564289 L1750.375,1425.400564289 L1750.375,1379.50281534853 L1760.98333333333,1379.50281534853 L1760.98333333333,1331.61637825957 L1771.59166666667,1331.61637825957 L1771.59166666667,1281.87250641765 L1782.2,1281.87250641765 L1782.2,1230.40754431782 L1792.80833333333,1230.40754431782 L1792.80833333333,1177.36255384392 L1803.41666666667,1177.36255384392 L1803.41666666667,1122.88292762772 L1814.025,1122.88292762772 L1814.025,1067.11799053785 L1824.63333333333,1067.11799053785 L1824.63333333333,1010.2205903907 L1835.24166666667,1010.2205903907 L1835.24166666667,952.34667900519 L1845.85,952.34667900519 L1845.85,893.65488474965 L1856.45833333333,893.65488474965 L1856.45833333333,834.306077752524 L1867.06666666667,834.306077752524 L1867.06666666667,774.462928968505 L1877.675,774.462928968505 L1877.675,714.289464308763 L1888.28333333333,714.289464308763 L1888.28333333333,653.950615057325 L1899,654 M2524.78333333333,653.950615057325 L2535.39166666667,647 L2535.39166666667,714.289464308763 L2546,714.289464308763 L2546,774.462928968504 L2556.60833333333,774.462928968504 L2556.60833333333,834.306077752524 L2567.21666666667,834.306077752524 L2567.21666666667,893.65488474965 L2577.825,893.65488474965 L2577.825,952.346679005189 L2588.43333333333,952.346679005189 L2588.43333333333,1010.2205903907 L2599.04166666667,1010.2205903907 L2599.04166666667,1067.11799053785 L2609.65,1067.11799053785 L2609.65,1122.88292762772 L2620.25833333333,1122.88292762772 L2620.25833333333,1177.36255384392 L2630.86666666667,1177.36255384392 L2630.86666666667,1230.40754431782 L2641.475,1230.40754431782 L2641.475,1281.87250641765 L2652.08333333333,1281.87250641765 L2652.08333333333,1331.61637825957 L2662.69166666667,1331.61637825957 L2662.69166666667,1379.50281534853 L2673.3,1379.50281534853 L2673.3,1425.400564289 L2683.90833333333,1425.400564289 L2683.90833333333,1469.18382254146 L2694.51666666667,1469.18382254146 L2694.51666666667,1510.73258323837 L2705.125,1510.73258323837 L2705.125,1549.93296411468 L2715.73333333333,1549.93296411468 L2715.73333333333,1586.6775196512 L2726.34166666667,1586.6775196512 L2726.34166666667,1620.86553557527 L2736.95,1620.86553557527 L2736.95,1652.40330491164 L2747.55833333333,1652.40330491164 L2747.55833333333,1681.20438482671 L2758.16666666667,1681.20438482671 L2758.16666666667,1707.18983356238 L2768.775,1707.18983356238 L2768.775,1730.28842680988 L2779.38333333333,1730.28842680988 L2779.38333333333,1750.4368529307 L2789.99166666667,1750.4368529307 L2789.99166666667,1767.57988648933 L2800.6,1767.57988648933 L2800.6,1781.67053962238 L2811.20833333333,1781.67053962238 L2811.20833333333,1783.68094089957 L2821.81666666667,1783.68094089957 L2821.81666666667,1803.12496066935 L2832.425,1803.12496066935 L2832.425,1837.66579521499 L2843.03333333333,1837.66579521499 L2843.03333333333,1884.4567300401 L2853.64166666667,1884.4567300401 L2853.64166666667,1940.70691689928 L2864.25,1940.70691689928 L2864.25,2004 L2874.85833333333,2004 L2874.85833333333,1994.72354619701 L2885.46666666667,1994.72354619701 L2885.46666666667,1981.77212698575 L2896.075,1981.77212698575 L2896.075,1965.18124130604 L2906.68333333333,1965.18124130604 L2906.68333333333,1944.9963636223 L2917.29166666667,1944.9963636223 L2917.29166666667,1921.27281928124 L2927.9,1921.27281928124 L2927.9,1894.07563286889 L2938.50833333333,1894.07563286889 L2938.50833333333,1863.47934998274 L2949.11666666667,1863.47934998274 L2949.11666666667,1829.56783290748 L2959.725,1829.56783290748 L2959.725,1792.43403075424 L2970.33333333333,1792.43403075424 L2970.33333333333,1752.17972469359 L2980.94166666667,1752.17972469359 L2980.94166666667,1708.91524898039 L2991.55,1708.91524898039 L2991.55,1662.75918853531 L3002.15833333333,1662.75918853531 L3002.15833333333,1613.83805391174 L3012.76666666667,1613.83805391174 L3012.76666666667,1562.28593453924 L3023.375,1562.28593453924 L3023.375,1508.24413119364 L3033.98333333333,1508.24413119364 L3033.98333333333,1451.86076870153 L3044.59166666667,1451.86076870153 L3044.59166666667,1393.29038994034 L3055.2,1393.29038994034 L3055.2,1332.69353224707 L3065.80833333333,1332.69353224707 L3065.80833333333,1270.23628739663 L3076.41666666667,1270.23628739663 L3076.41666666667,1206.08984635579 L3087.025,1206.08984635579 L3087.025,1140.43003006069 L3097.63333333333,1140.43003006069 L3097.63333333333,1073.43680750384 L3108.24166666667,1073.43680750384 L3108.24166666667,1005.29380245162 L3118.85,1005.29380245162 L3118.85,936.187790144322 L3129.45833333333,936.187790144322 L3129.45833333333,866.308185358172 L3140.06666666667,866.308185358172 L3140.06666666667,795.846523232622 L3150.675,795.846523232622 L3150.675,724.995934285826 L3161.28333333333,724.995934285826 L3161.28333333333,653.950615057325 L3155,654 " PBD:DatasetName="AF2_DS" PBD:DatasetColumn="\\JLEFEBVRENEW\JDIData\DataEven|Sensor|LoLo">
				</path>
				<path id="Trend1_Plot2" style="font-family:Arial;font-size:33;stroke:#FFFF00;fill:none;stroke-width:2;" d="M10.6083333333333,728.605380776677 L21.2166666666667,728.605380776677 L21.2166666666667,753.171707828169 L31.825,753.171707828169 L31.825,777.466076761151 L42.4333333333333,777.466076761151 L42.4333333333333,801.421898399056 L53.0416666666667,801.421898399056 L53.0416666666667,824.973511499925 L63.65,824.973511499925 L63.65,848.056362729301 L74.2583333333333,848.056362729301 L74.2583333333333,870.607183596433 L84.8666666666667,870.607183596433 L84.8666666666667,892.564163868813 L95.475,892.564163868813 L95.475,913.867120989725 L106.083333333333,913.867120989725 L106.083333333333,934.45766503445 L116.691666666667,934.45766503445 L116.691666666667,954.279358752995 L127.3,954.279358752995 L127.3,973.277872260664 L137.908333333333,973.277872260664 L137.908333333333,991.401131952505 L148.516666666667,991.401131952505 L148.516666666667,1008.59946323343 L159.125,1008.59946323343 L159.125,1024.82572667285 L169.733333333333,1024.82572667285 L169.733333333333,1040.03544721054 L180.341666666667,1040.03544721054 L180.341666666667,1054.18693605973 L190.95,1054.18693605973 L190.95,1067.24140497314 L201.558333333333,1067.24140497314 L201.558333333333,1079.16307255888 L212.166666666667,1079.16307255888 L212.166666666667,1089.91926235476 L222.775,1089.91926235476 L222.775,1099.4804923922 L233.383333333333,1099.4804923922 L233.383333333333,1107.82055600428 L243.991666666667,1107.82055600428 L243.991666666667,1114.91659365633 L254.6,1114.91659365633 L254.6,1120.7491556024 L265.208333333333,1120.7491556024 L265.208333333333,1125.3022551956 L275.816666666667,1125.3022551956 L275.816666666667,1128.56341270643 L286.425,1128.56341270643 L286.425,1130.52368952883 L297.033333333333,1130.52368952883 L297.033333333333,1131.1777126803 L307.641666666667,1131.1777126803 L307.641666666667,1130.52368952883 L318.25,1130.52368952883 L318.25,1128.56341270643 L328.858333333333,1128.56341270643 L328.858333333333,1125.3022551956 L339.466666666667,1125.3022551956 L339.466666666667,1120.7491556024 L350.075,1120.7491556024 L350.075,1114.91659365633 L360.683333333333,1114.91659365633 L360.683333333333,1107.82055600428 L371.291666666667,1107.82055600428 L371.291666666667,1099.4804923922 L381.9,1099.4804923922 L381.9,1089.91926235476 L392.508333333333,1089.91926235476 L392.508333333333,1079.16307255888 L403.116666666667,1079.16307255888 L403.116666666667,1067.24140497314 L413.725,1067.24140497314 L413.725,1054.18693605973 L424.333333333333,1054.18693605973 L424.333333333333,1040.03544721054 L434.941666666667,1040.03544721054 L434.941666666667,1024.82572667285 L445.55,1024.82572667285 L445.55,1008.59946323343 L456.158333333333,1008.59946323343 L456.158333333333,991.401131952506 L466.766666666667,991.401131952506 L466.766666666667,973.277872260665 L477.375,973.277872260665 L477.375,954.279358752995 L487.983333333333,954.279358752995 L487.983333333333,934.45766503445 L498.591666666667,934.45766503445 L498.591666666667,913.867120989725 L509.2,913.867120989725 L509.2,892.564163868813 L519.808333333333,892.564163868813 L519.808333333333,870.607183596433 L530.416666666667,870.607183596433 L530.416666666667,848.056362729301 L541.025,848.056362729301 L541.025,824.973511499926 L551.633333333333,824.973511499926 L551.633333333333,801.421898399056 L562.241666666667,801.421898399056 L562.241666666667,777.466076761151 L572.85,777.466076761151 L572.85,753.17170782817 L583.458333333333,753.17170782817 L583.458333333333,728.605380776677 L594.066666666667,728.605380776677 L594.066666666667,703.834430201537 L604.675,703.834430201537 L604.675,678.926751556468 L615.283333333333,678.926751556468 L615.283333333333,653.950615057325 L626,654 M1251.78333333333,653.950615057325 L1262.39166666667,647 L1262.39166666667,678.926751556468 L1273,678.926751556468 L1273,703.834430201537 L1283.60833333333,703.834430201537 L1283.60833333333,728.605380776677 L1294.21666666667,728.605380776677 L1294.21666666667,753.171707828169 L1304.825,753.171707828169 L1304.825,777.466076761151 L1315.43333333333,777.466076761151 L1315.43333333333,801.421898399056 L1326.04166666667,801.421898399056 L1326.04166666667,824.973511499925 L1336.65,824.973511499925 L1336.65,848.056362729301 L1347.25833333333,848.056362729301 L1347.25833333333,870.607183596433 L1357.86666666667,870.607183596433 L1357.86666666667,892.564163868813 L1368.475,892.564163868813 L1368.475,913.867120989725 L1379.08333333333,913.867120989725 L1379.08333333333,934.45766503445 L1389.69166666667,934.45766503445 L1389.69166666667,954.279358752995 L1400.3,954.279358752995 L1400.3,973.277872260664 L1410.90833333333,973.277872260664 L1410.90833333333,991.401131952505 L1421.51666666667,991.401131952505 L1421.51666666667,1008.59946323343 L1432.125,1008.59946323343 L1432.125,1024.82572667285 L1442.73333333333,1024.82572667285 L1442.73333333333,1040.03544721054 L1453.34166666667,1040.03544721054 L1453.34166666667,1054.18693605973 L1463.95,1054.18693605973 L1463.95,1067.24140497314 L1474.55833333333,1067.24140497314 L1474.55833333333,1079.16307255888 L1485.16666666667,1079.16307255888 L1485.16666666667,1089.91926235476 L1495.775,1089.91926235476 L1495.775,1099.4804923922 L1506.38333333333,1099.4804923922 L1506.38333333333,1107.82055600428 L1516.99166666667,1107.82055600428 L1516.99166666667,1114.91659365633 L1527.6,1114.91659365633 L1527.6,1120.7491556024 L1538.20833333333,1120.7491556024 L1538.20833333333,989.476092304601 L1548.81666666667,989.476092304601 L1548.81666666667,857.997950430451 L1559.425,857.997950430451 L1559.425,726.313311095439 L1570.03333333333,726.313311095439 L1570.03333333333,594.421321410244 L1580.64166666667,594.421321410244 L1580.64166666667,462.321696818443 L1591.25,462.321696818443 L1591.25,330.01472187646 L1601.85833333333,330.01472187646 L1601.85833333333,332.240548858597 L1612.46666666667,332.240548858597 L1612.46666666667,335.348160770391 L1623.075,335.348160770391 L1623.075,339.329039863601 L1633.68333333333,339.329039863601 L1633.68333333333,344.172274825339 L1644.29166666667,344.172274825339 L1644.29166666667,349.864590685225 L1654.9,349.864590685225 L1654.9,356.390385201154 L1665.50833333333,356.390385201154 L1665.50833333333,363.731771623961 L1676.11666666667,363.731771623961 L1676.11666666667,371.868627723755 L1686.725,371.868627723755 L1686.725,380.778650943551 L1697.33333333333,380.778650943551 L1697.33333333333,390.437419529033 L1707.94166666667,390.437419529033 L1707.94166666667,400.81845946688 L1718.55,400.81845946688 L1718.55,411.8933170482 L1729.15833333333,411.8933170482 L1729.15833333333,423.631636858167 L1739.76666666667,423.631636858167 L1739.76666666667,436.001244978102 L1750.375,436.001244978102 L1750.375,448.968237171948 L1760.98333333333,448.968237171948 L1760.98333333333,462.497071815429 L1771.59166666667,462.497071815429 L1771.59166666667,476.550667313162 L1782.2,476.550667313162 L1782.2,491.090503736743 L1792.80833333333,491.090503736743 L1792.80833333333,506.076728405187 L1803.41666666667,506.076728405187 L1803.41666666667,521.468265118356 L1814.025,521.468265118356 L1814.025,537.222926743972 L1824.63333333333,537.222926743972 L1824.63333333333,553.297530849614 L1835.24166666667,553.297530849614 L1835.24166666667,569.648018062759 L1845.85,569.648018062759 L1845.85,586.229572834463 L1856.45833333333,586.229572834463 L1856.45833333333,602.99674627567 L1867.06666666667,602.99674627567 L1867.06666666667,619.903580729446 L1877.675,619.903580729446 L1877.675,636.903735737735 L1888.28333333333,636.903735737735 L1888.28333333333,653.950615057325 L1899,654 M2524.78333333333,653.950615057325 L2535.39166666667,647 L2535.39166666667,636.903735737735 L2546,636.903735737735 L2546,619.903580729446 L2556.60833333333,619.903580729446 L2556.60833333333,602.99674627567 L2567.21666666667,602.99674627567 L2567.21666666667,586.229572834464 L2577.825,586.229572834464 L2577.825,569.648018062759 L2588.43333333333,569.648018062759 L2588.43333333333,553.297530849614 L2599.04166666667,553.297530849614 L2599.04166666667,537.222926743973 L2609.65,537.222926743973 L2609.65,521.468265118356 L2620.25833333333,521.468265118356 L2620.25833333333,506.076728405187 L2630.86666666667,506.076728405187 L2630.86666666667,491.090503736744 L2641.475,491.090503736744 L2641.475,476.550667313162 L2652.08333333333,476.550667313162 L2652.08333333333,462.497071815429 L2662.69166666667,462.497071815429 L2662.69166666667,448.968237171948 L2673.3,448.968237171948 L2673.3,436.001244978101 L2683.90833333333,436.001244978101 L2683.90833333333,423.631636858167 L2694.51666666667,423.631636858167 L2694.51666666667,411.8933170482 L2705.125,411.8933170482 L2705.125,400.81845946688 L2715.73333333333,400.81845946688 L2715.73333333333,390.437419529033 L2726.34166666667,390.437419529033 L2726.34166666667,380.778650943551 L2736.95,380.778650943551 L2736.95,371.868627723755 L2747.55833333333,371.868627723755 L2747.55833333333,363.731771623961 L2758.16666666667,363.731771623961 L2758.16666666667,356.390385201154 L2768.775,356.390385201154 L2768.775,349.864590685225 L2779.38333333333,349.864590685225 L2779.38333333333,344.172274825339 L2789.99166666667,344.172274825339 L2789.99166666667,339.329039863601 L2800.6,339.329039863601 L2800.6,335.348160770391 L2811.20833333333,335.348160770391 L2811.20833333333,319.702466882448 L2821.81666666667,319.702466882448 L2821.81666666667,284.556047170127 L2832.425,284.556047170127 L2832.425,232.231403580472 L2843.03333333333,232.231403580472 L2843.03333333333,165.566653837835 L2853.64166666667,165.566653837835 L2853.64166666667,87.349777976437 L2864.25,87.349777976437 L2864.25,0 L2874.85833333333,0 L2874.85833333333,4.4934227871023 L2885.46666666667,4.4934227871023 L2885.46666666667,10.7669625950011 L2896.075,10.7669625950011 L2896.075,18.8034240871518 L2906.68333333333,18.8034240871518 L2906.68333333333,28.5807798812121 L2917.29166666667,28.5807798812121 L2917.29166666667,40.0722309245655 L2927.9,40.0722309245655 L2927.9,53.2462799486634 L2938.50833333333,53.2462799486634 L2938.50833333333,68.0668178008482 L2949.11666666667,68.0668178008482 L2949.11666666667,84.4932224170291 L2959.725,84.4932224170291 L2959.725,102.480470163939 L2970.33333333333,102.480470163939 L2970.33333333333,121.979259245782 L2980.94166666667,121.979259245782 L2980.94166666667,142.936144837029 L2991.55,142.936144837029 L2991.55,165.29368557097 L3002.15833333333,165.29368557097 L3002.15833333333,188.990600982506 L3012.76666666667,188.990600982506 L3012.76666666667,213.961939473646 L3023.375,213.961939473646 L3023.375,240.139256341324 L3033.98333333333,240.139256341324 L3033.98333333333,267.450801379567 L3044.59166666667,267.450801379567 L3044.59166666667,295.821715541829 L3055.2,295.821715541829 L3055.2,325.174236124427 L3065.80833333333,325.174236124427 L3065.80833333333,355.427909908716 L3076.41666666667,355.427909908716 L3076.41666666667,386.499813677757 L3087.025,386.499813677757 L3087.025,418.304781503103 L3097.63333333333,418.304781503103 L3097.63333333333,450.755638178679 L3108.24166666667,450.755638178679 L3108.24166666667,483.763438161971 L3118.85,483.763438161971 L3118.85,517.237709367566 L3129.45833333333,517.237709367566 L3129.45833333333,551.086701144861 L3140.06666666667,551.086701144861 L3140.06666666667,585.217635760206 L3150.675,585.217635760206 L3150.675,619.536962694233 L3161.28333333333,619.536962694233 L3161.28333333333,653.950615057325 L3155,654 " PBD:DatasetName="AF2_DS" PBD:DatasetColumn="\\JLEFEBVRENEW\JDIData\DataEven|Sensor|HiHi">
				</path>
			</svg>
			<svg id="Trend1_MarkerGroup" height="2004" width="3819" style="" x="6" y="41">
				<circle id="Trend1_1" cx="626.391666666667" cy="654.450615057325" r="8" style="stroke-width:2;stroke:#00FFFF;fill:none;">
				</circle>
				<polyline id="Trend1_1" style="stroke-width:2;stroke:#00FFFF;fill:none;stroke-width:4;" points="1245,647 1259,661 1252,654 1245,661 1259,647">
				</polyline>
				<circle id="Trend1_1" cx="1899.39166666667" cy="654.450615057325" r="8" style="stroke-width:2;stroke:#00FFFF;fill:none;">
				</circle>
				<polyline id="Trend1_1" style="stroke-width:2;stroke:#00FFFF;fill:none;stroke-width:4;" points="2518,647 2532,661 2525,654 2518,661 2532,647">
				</polyline>
				<polyline id="Trend1_1" style="stroke-width:2;stroke:#00FFFF;fill:none;stroke-width:4;" points="3148,647 3162,661 3155,654 3148,661 3162,647">
				</polyline>
				<polygon id="Trend1_2" points="620.391666666667,648.450615057325 632.391666666667,648.450615057325 632.391666666667,660.450615057325 620.391666666667,660.450615057325 620.391666666667,648.450615057325" style="stroke-width:2;stroke:#FFFF00;fill:#FFFF00;" transform="rotate(45,626.391666666667,654.450615057325) ">
				</polygon>
				<polyline id="Trend1_2" style="stroke-width:2;stroke:#FFFF00;fill:none;stroke-width:4;" points="1245,647 1259,661 1252,654 1245,661 1259,647">
				</polyline>
				<polygon id="Trend1_2" points="1893.39166666667,648.450615057325 1905.39166666667,648.450615057325 1905.39166666667,660.450615057325 1893.39166666667,660.450615057325 1893.39166666667,648.450615057325" style="stroke-width:2;stroke:#FFFF00;fill:#FFFF00;" transform="rotate(45,1899.39166666667,654.450615057325) ">
				</polygon>
				<polyline id="Trend1_2" style="stroke-width:2;stroke:#FFFF00;fill:none;stroke-width:4;" points="2518,647 2532,661 2525,654 2518,661 2532,647">
				</polyline>
				<polyline id="Trend1_2" style="stroke-width:2;stroke:#FFFF00;fill:none;stroke-width:4;" points="3148,647 3162,661 3155,654 3148,661 3162,647">
				</polyline>
				<circle id="Trend1_1" cx="827.95" cy="654.450615057325" r="8" style="stroke-width:2;stroke:#00FF00;fill:#00FF00;">
				</circle>
				<circle id="Trend1_1" cx="1602.35833333333" cy="183.098974919054" r="8" style="stroke-width:2;stroke:#00FF00;fill:#00FF00;">
				</circle>
				<circle id="Trend1_1" cx="2366.15833333333" cy="654.450615057325" r="8" style="stroke-width:2;stroke:#00FF00;fill:#00FF00;">
				</circle>
				<circle id="Trend1_2" cx="552.133333333333" cy="801.921898399056" r="8" style="stroke-width:2;stroke:#00FFFF;fill:none;">
				</circle>
				<circle id="Trend1_2" cx="1634.18333333333" cy="1750.9368529307" r="8" style="stroke-width:2;stroke:#00FFFF;fill:none;">
				</circle>
				<circle id="Trend1_2" cx="2673.8" cy="1425.900564289" r="8" style="stroke-width:2;stroke:#00FFFF;fill:none;">
				</circle>
				<polygon id="Trend1_3" points="546.133333333333,795.921898399056 558.133333333333,795.921898399056 558.133333333333,807.921898399056 546.133333333333,807.921898399056 546.133333333333,795.921898399056" style="stroke-width:2;stroke:#FFFF00;fill:#FFFF00;" transform="rotate(45,552.133333333333,801.921898399056) ">
				</polygon>
				<polygon id="Trend1_3" points="1628.18333333333,338.672274825339 1640.18333333333,338.672274825339 1640.18333333333,350.672274825339 1628.18333333333,350.672274825339 1628.18333333333,338.672274825339" style="stroke-width:2;stroke:#FFFF00;fill:#FFFF00;" transform="rotate(45,1634.18333333333,344.672274825339) ">
				</polygon>
				<polygon id="Trend1_3" points="2667.8,430.501244978101 2679.8,430.501244978101 2679.8,442.501244978101 2667.8,442.501244978101 2667.8,430.501244978101" style="stroke-width:2;stroke:#FFFF00;fill:#FFFF00;" transform="rotate(45,2673.8,436.501244978101) ">
				</polygon>
			</svg>
			<g id="Trend1_YScaleTextGroup" style="font-family:Arial;font-size:33;stroke:#FFFFFF;fill:#FFFFFF;" transform="translate(8,41)">
				<text id="Max_0" x="2" y="33">1.37031</text>
				<text id="Min_0" x="2" y="1998">-2.82895</text>
				<text x="0" y="1852.26888416727">-2.5</text>
				<text x="0" y="1613.65533535578">-2</text>
				<text x="0" y="1375.04178654429">-1.5</text>
				<text x="0" y="1136.42823773281">-1</text>
				<text x="0" y="897.814688921319">-0.5</text>
				<text x="0" y="659.20114010983">0</text>
				<text x="0" y="420.587591298342">0.5</text>
				<text x="0" y="181.974042486854">1</text>
			</g>
		</svg>
	</g>
	<g id="Trend2" PB:Type="10">
		<PB:TrendLogical id="Trend2_Logical" PB:ValueScalePosition="1" PB:BackgroundColor="8421504" PB:CurrentTrace="3" PB:DisplayScaleInside="True" PB:EnableScript="True" PB:Enabled="True" PB:EndTime="*+1m" PB:FillColor="16711680" PB:FontBold="False" PB:FontItalic="False" PB:FontName="Arial" PB:FontSize="10" PB:FontStrikethrough="False" PB:FontUnderline="False" PB:Height="1492" PB:IsMultiState="False" PB:Left="-14746" PB:LineColor="16777215" PB:MultipleScales="False" PB:Name="Trend2" PB:PlotTimeStyle="0" PB:Rotation="0" PB:ShowDescription="False" PB:ShowEngUnits="True" PB:ShowGrids="True" PB:ShowTagName="True" PB:ShowServerName="False" PB:ShowTitle="True" PB:ShowTraceMarkers="False" PB:ShowValue="True" PB:StartTime="*-3m" PB:Top="12740" PB:TraceCount="3" PB:TrendTitle="Plot-0" PB:Visible="True" PB:Width="4710">
			<PB:TraceElem id="PB:TraceElem_1" PB:ShowLinearRegression="False" PB:ScaleLogarithmic="False" PB:ScaleMax="Autorange" PB:ScaleMin="Autorange" PB:Trace="AF2.\\JLEFEBVRENEW\JDIData\DataShort|Sensor" PB:ScaleFormat="General" PB:DisplayDigits="-5" PB:CanonicalNumberFormat="General" PB:TagInfoType="1">
			</PB:TraceElem>
			<PB:TraceElem id="PB:TraceElem_2" PB:ShowLinearRegression="False" PB:ScaleLogarithmic="False" PB:ScaleMax="Autorange" PB:ScaleMin="Autorange" PB:Trace="AF2.\\JLEFEBVRENEW\JDIData\DataShort|Sensor|LoLo" PB:ScaleFormat="General" PB:DisplayDigits="-5" PB:CanonicalNumberFormat="General" PB:TagInfoType="1">
			</PB:TraceElem>
			<PB:TraceElem id="PB:TraceElem_3" PB:ShowLinearRegression="False" PB:ScaleLogarithmic="False" PB:ScaleMax="Autorange" PB:ScaleMin="Autorange" PB:Trace="AF2.\\JLEFEBVRENEW\JDIData\DataShort|Sensor|HiHi" PB:ScaleFormat="General" PB:DisplayDigits="-5" PB:CanonicalNumberFormat="General" PB:TagInfoType="1">
			</PB:TraceElem>
			<PB:Format id="PB:Format_1" PB:Name="Horz. Axis" PB:LineColor="0" PB:LineStyle="0" PB:LineWidth="1" PB:MarkerStyle="-1">
			</PB:Format>
			<PB:Format id="PB:Format_2" PB:Name="Background" PB:LineColor="8421504" PB:LineStyle="-1" PB:LineWidth="1" PB:MarkerStyle="-1">
			</PB:Format>
			<PB:Format id="PB:Format_3" PB:Name="Horz. Major Grid" PB:LineColor="0" PB:LineStyle="0" PB:LineWidth="1" PB:MarkerStyle="-1">
			</PB:Format>
			<PB:Format id="PB:Format_4" PB:Name="Horz. Minor Grid" PB:LineColor="0" PB:LineStyle="0" PB:LineWidth="1" PB:MarkerStyle="-1">
			</PB:Format>
			<PB:Format id="PB:Format_5" PB:Name="Pen 1" PB:LineColor="65280" PB:LineStyle="0" PB:LineWidth="1" PB:MarkerStyle="0">
			</PB:Format>
			<PB:Format id="PB:Format_6" PB:Name="Pen 2" PB:LineColor="16776960" PB:LineStyle="0" PB:LineWidth="1" PB:MarkerStyle="1">
			</PB:Format>
			<PB:Format id="PB:Format_7" PB:Name="Pen 3" PB:LineColor="65535" PB:LineStyle="0" PB:LineWidth="1" PB:MarkerStyle="2">
			</PB:Format>
			<PB:Format id="PB:Format_8" PB:Name="Pen 4" PB:LineColor="16711935" PB:LineStyle="0" PB:LineWidth="1" PB:MarkerStyle="3">
			</PB:Format>
			<PB:Format id="PB:Format_9" PB:Name="Pen 5" PB:LineColor="255" PB:LineStyle="0" PB:LineWidth="1" PB:MarkerStyle="4">
			</PB:Format>
			<PB:Format id="PB:Format_10" PB:Name="Pen 6" PB:LineColor="16777215" PB:LineStyle="0" PB:LineWidth="1" PB:MarkerStyle="5">
			</PB:Format>
			<PB:Format id="PB:Format_11" PB:Name="Pen 7" PB:LineColor="16711680" PB:LineStyle="0" PB:LineWidth="1" PB:MarkerStyle="6">
			</PB:Format>
			<PB:Format id="PB:Format_12" PB:Name="Pen 8" PB:LineColor="0" PB:LineStyle="0" PB:LineWidth="1" PB:MarkerStyle="7">
			</PB:Format>
			<PB:Format id="PB:Format_13" PB:Name="Pen 9" PB:LineColor="8388608" PB:LineStyle="0" PB:LineWidth="1" PB:MarkerStyle="8">
			</PB:Format>
			<PB:Format id="PB:Format_14" PB:Name="Pen 10" PB:LineColor="32768" PB:LineStyle="0" PB:LineWidth="1" PB:MarkerStyle="9">
			</PB:Format>
			<PB:Format id="PB:Format_15" PB:Name="Pen 11" PB:LineColor="8388736" PB:LineStyle="0" PB:LineWidth="1" PB:MarkerStyle="10">
			</PB:Format>
			<PB:Format id="PB:Format_16" PB:Name="Pen 12" PB:LineColor="8433626" PB:LineStyle="0" PB:LineWidth="1" PB:MarkerStyle="11">
			</PB:Format>
			<PB:Format id="PB:Format_17" PB:Name="Text" PB:LineColor="16777215" PB:LineStyle="-1" PB:LineWidth="1" PB:MarkerStyle="-1">
			</PB:Format>
			<PB:Format id="PB:Format_18" PB:Name="Vert. Axis" PB:LineColor="0" PB:LineStyle="0" PB:LineWidth="1" PB:MarkerStyle="-1">
			</PB:Format>
			<PB:Format id="PB:Format_19" PB:Name="Vert. Major Grid" PB:LineColor="0" PB:LineStyle="0" PB:LineWidth="1" PB:MarkerStyle="-1">
			</PB:Format>
			<PB:Format id="PB:Format_20" PB:Name="Vert. Minor Grid" PB:LineColor="0" PB:LineStyle="0" PB:LineWidth="1" PB:MarkerStyle="-1">
			</PB:Format>
		</PB:TrendLogical>
		<svg id="Trend2_Graphical" height="1492" width="4710" x="254" y="2260">
			<PB:RefreshData id="Trend2_RefreshData" PB:bEngUnits="True" PB:bLogarithmic="False" PB:bMarkers="False" PB:bTagname="True" PB:bValue="True" PB:fXUnits="15.958333333333333333333333333" PB:iGrdBegX="6" PB:iGrdBegY="41" PB:iGrdHght="1400" PB:iGrdWdth="3830" PB:iMinPerCol="30" PB:iNumTrcs="3" PB:iNumXCols="0" PB:bGrids="True" PB:Updateable="True" PB:iSnglLnHght="33" PB:iScaleWidth="0" PB:bOmitScaleText="False" PB:bOmitTimeText="False">
			</PB:RefreshData>
			<rect id="Trend2_Background" x="0" y="0" width="4710" height="1492" fill="#808080">
			</rect>
			<g id="Trend2_PlotTitleGroup" style="font-family:Arial;font-size:33;stroke:#FFFFFF;fill:#FFFFFF;">
				<text x="6" y="33" style="font-family:Arial;font-size:33;stroke:#FFFFFF;fill:#FFFFFF;">Plot-0</text>
			</g>
			<svg id="Trend2_AxesGroup" height="1400" width="3830" x="6" y="41">
				<rect id="Trend2_GridBackground" x="0" y="0" width="3830" height="1400" style="fill:#808080;stroke:none;">
				</rect>
				<polyline id="Trend2_VertAxis_1" style="stroke-width:3;fill:none;stroke:#000000;" points="0,0 0,1400">
				</polyline>
				<polyline id="Trend2_VertAxis_Last" style="stroke-width:3;fill:none;stroke:#000000;stroke-dasharray:10 10 10 10;" points="3830,0 3830,1400">
				</polyline>
				<polyline id="Trend2_HorizAxis" style="stroke-width:3;fill:none;stroke:#000000;" points="0,1400 3830,1400">
				</polyline>
			</svg>
			<svg id="Trend2_GridGroup" height="1400" width="3830" x="6" y="41">
				<path id="Trend2_HorizGridLine" style="stroke-width:2;stroke:#000000;" d="M431,0 L431,1400">
				</path>
				<path id="Trend2_HorizGridLine" style="stroke-width:2;stroke:#000000;" d="M910,0 L910,1400">
				</path>
				<path id="Trend2_HorizGridLine" style="stroke-width:2;stroke:#000000;" d="M1388,0 L1388,1400">
				</path>
				<path id="Trend2_HorizGridLine" style="stroke-width:2;stroke:#000000;" d="M1867,0 L1867,1400">
				</path>
				<path id="Trend2_HorizGridLine" style="stroke-width:2;stroke:#000000;" d="M2346,0 L2346,1400">
				</path>
				<path id="Trend2_HorizGridLine" style="stroke-width:2;stroke:#000000;" d="M2825,0 L2825,1400">
				</path>
				<path id="Trend2_HorizGridLine" style="stroke-width:2;stroke:#000000;" d="M3303,0 L3303,1400">
				</path>
				<path id="Trend2_HorizGridLine" style="stroke-width:2;stroke:#000000;" d="M3782,0 L3782,1400">
				</path>
				<path id="Trend2_VertGridLine" style="stroke-width:2;stroke:#000000" d="M0,1369.85 L3830,1369.85">
				</path>
				<path id="Trend2_VertGridLine" style="stroke-width:2;stroke:#000000" d="M0,1182.7 L3830,1182.7">
				</path>
				<path id="Trend2_VertGridLine" style="stroke-width:2;stroke:#000000" d="M0,995.56 L3830,995.56">
				</path>
				<path id="Trend2_VertGridLine" style="stroke-width:2;stroke:#000000" d="M0,808.42 L3830,808.42">
				</path>
				<path id="Trend2_VertGridLine" style="stroke-width:2;stroke:#000000" d="M0,621.28 L3830,621.28">
				</path>
				<path id="Trend2_VertGridLine" style="stroke-width:2;stroke:#000000" d="M0,434.13 L3830,434.13">
				</path>
				<path id="Trend2_VertGridLine" style="stroke-width:2;stroke:#000000" d="M0,246.99 L3830,246.99">
				</path>
				<path id="Trend2_VertGridLine" style="stroke-width:2;stroke:#000000" d="M0,59.85 L3830,59.85">
				</path>
				<path id="Trend2_VertGridLine" style="stroke-width:2;stroke:#000000" d="M0,0 L3830,0">
				</path>
			</svg>
			<g id="Trend2_XScaleTextGroup" style="font-family:Arial;font-size:33;stroke:#FFFFFF;fill:#FFFFFF;">
				<text id="Trend2_XScaleTextBegin" x="6" y="1476" style="font-family:Arial;font-size:33;stroke:#FFFFFF;fill:#FFFFFF;">2016/05/08 14:34:03</text>
				<text id="Trend2_XScaleTextSpan" x="1771" y="1476" style="font-family:Arial;font-size:33;stroke:#FFFFFF;fill:#FFFFFF;">240.00 seconds</text>
				<text id="Trend2_XScaleTextEnd" x="3451" y="1476" style="font-family:Arial;font-size:33;stroke:#FFFFFF;fill:#FFFFFF;">2016/05/08 14:38:03</text>
			</g>
			<g id="Trend2_TagNameGroup" transform="translate(3862,43)">
				<circle id="Trend2_0" cx="0.5" cy="17" r="8" style="stroke-width:2;stroke:#00FF00;fill:#00FF00;">
				</circle>
				<text id="Trend2_TagName0" x="19.1860465116279" y="33" style="font-family:Arial;font-size:33;stroke:#00FF00;fill:#00FF00;">DataShort.Sensor</text>
				<text id="Trend2_TagValue0" x="19.1860465116279" y="68" style="font-family:Arial;font-size:33;stroke:#00FF00;fill:#00FF00;">0</text>
				<text id="Trend2_EngUnits0" x="19.1860465116279" y="103" style="font-family:Arial;font-size:33;stroke:#00FF00;fill:#00FF00;">
				</text>
				<circle id="Trend2_1" cx="0.5" cy="122" r="8" style="stroke-width:2;stroke:#00FFFF;fill:none;">
				</circle>
				<text id="Trend2_TagName1" x="19.1860465116279" y="138" style="font-family:Arial;font-size:33;stroke:#00FFFF;fill:#00FFFF;">OSIDemo_DataShort.LoLo</text>
				<text id="Trend2_TagValue1" x="19.1860465116279" y="173" style="font-family:Arial;font-size:33;stroke:#00FFFF;fill:#00FFFF;">No Data</text>
				<text id="Trend2_EngUnits1" x="19.1860465116279" y="208" style="font-family:Arial;font-size:33;stroke:#00FFFF;fill:#00FFFF;">
				</text>
				<polygon id="Trend2_2" points="-5.5,221 6.5,221 6.5,233 -5.5,233 -5.5,221" style="stroke-width:2;stroke:#FFFF00;fill:#FFFF00;" transform="rotate(45,0.5,227) ">
				</polygon>
				<text id="Trend2_TagName2" x="19.1860465116279" y="243" style="font-family:Arial;font-size:33;stroke:#FFFF00;fill:#FFFF00;">OSIDemo_DataShort.HH</text>
				<text id="Trend2_TagValue2" x="19.1860465116279" y="278" style="font-family:Arial;font-size:33;stroke:#FFFF00;fill:#FFFF00;">No Data</text>
				<text id="Trend2_EngUnits2" x="19.1860465116279" y="313" style="font-family:Arial;font-size:33;stroke:#FFFF00;fill:#FFFF00;">
				</text>
			</g>
			<svg id="Trend2_TraceGroup" height="1400" width="3830" style="font-family:Arial;font-size:33;stroke:#FFFFFF;fill:#FFFFFF;" x="6" y="41">
				<path id="Trend2_Plot0" style="font-family:Arial;font-size:33;stroke:#00FF00;fill:none;stroke-width:2;" d="M0,1144.72549080359 L15.9583333333333,1143.69748355558 L31.9166666666667,1177.90070107089 L47.875,1226.85714207428 L63.8333333333333,1219.1751976096 L79.7916666666667,1287.40578465578 L95.75,1271.97595846382 L111.708333333333,1339.84893002734 L127.666666666667,1329.6331707996 L143.625,1370.73305764024 L159.583333333333,1373.14393227966 L175.541666666667,1389.68828295558 L191.5,1396.90829771034 L207.458333333333,1387.82721924588 L223.416666666667,1384.17090872404 L239.375,1314.29047423102 L255.333333333333,1347.26740423956 L271.291666666667,1325.25112475013 L287.25,1291.87578916595 L303.208333333333,1277.37493440303 L319.166666666667,1243.79490835121 L335.125,1185.09099241819 L351.083333333333,1176.30962871677 L367.041666666667,1148.08260811181 L383,1096.86839349668 L398.958333333333,1100.37125981192 L414.916666666667,1041.59466808243 L430.875,987.993223882173 L446.833333333333,995.560352048482 L462.791666666667,995.560352048482 L478.75,995.560352048482 L494.708333333333,995.560352048482 L510.666666666667,995.560352048482 L526.625,995.560352048482 L542.583333333333,995.560352048482 L558.541666666667,995.560352048482 L574.5,995.560352048482 L590.458333333333,995.560352048482 L606.416666666667,995.560352048482 L622.375,995.560352048482 L638.333333333333,995.560352048482 L654.291666666667,995.560352048482 L670.25,995.560352048482 L686.208333333333,995.560352048482 L702.166666666667,995.560352048482 L718.125,995.560352048482 L734.083333333333,995.560352048482 L750.041666666667,995.560352048482 L766,995.560352048482 L781.958333333333,995.560352048482 L797.916666666667,995.560352048482 L813.875,995.560352048482 L829.833333333333,995.560352048482 L845.791666666667,995.560352048482 L861.75,995.560352048482 L877.708333333333,995.560352048482 L893.666666666667,995.560352048482 L909.625,987.318398553542 L925.583333333333,1063.10794138449 L941.541666666667,1067.12324421396 L957.5,1129.47197942313 L973.458333333333,1129.13025046907 L989.416666666667,1201.45448996805 L1005.375,1200.03143275505 L1021.33333333333,1267.53281847807 L1037.29166666667,1282.94872142977 L1053.25,1300.15561204071 L1069.20833333333,1302.14160135618 L1085.16666666667,1377.67806379286 L1101.125,1355.47953887433 L1117.08333333333,1375.92031676332 L1133.04166666667,1376.11559202099 L1149,1352.16039024829 L1164.95833333333,1348.72318411792 L1180.91666666667,1334.73860623171 L1196.875,1358.11318911519 L1212.83333333333,1327.58516052527 L1228.79166666667,1313.80401689028 L1244.75,1268.29924186625 L1260.70833333333,1250.84823359354 L1276.66666666667,1240.48906066721 L1292.625,1211.85830429625 L1308.58333333333,1186.75643003092 L1324.54166666667,1130.77933363771 L1340.5,1119.85408010491 L1356.45833333333,1065.25355034404 L1372.41666666667,1074.03501341065 L1388.375,1002.92668009439 L1404.33333333333,995.560352048482 L1420.29166666667,995.560352048482 L1436.25,995.560352048482 L1452.20833333333,995.560352048482 L1468.16666666667,995.560352048482 L1484.125,995.560352048482 L1500.08333333333,995.560352048482 L1516.04166666667,995.560352048482 L1532,995.560352048482 L1547.95833333333,995.560352048482 L1563.91666666667,995.560352048482 L1579.875,995.560352048482 L1595.83333333333,995.560352048482 L1611.79166666667,995.560352048482 L1627.75,995.560352048482 L1643.70833333333,995.560352048482 L1659.66666666667,995.560352048482 L1675.625,995.560352048482 L1691.58333333333,995.560352048482 L1707.54166666667,995.560352048482 L1723.5,995.560352048482 L1739.45833333333,995.560352048482 L1755.41666666667,995.560352048482 L1771.375,995.560352048482 L1787.33333333333,995.560352048482 L1803.29166666667,995.560352048482 L1819.25,995.560352048482 L1835.20833333333,995.560352048482 L1851.16666666667,995.560352048482 L1867.125,970.896725645827 L1883.08333333333,1045.86976531336 L1899.04166666667,1070.71461371737 L1915,1108.81544856971 L1930.95833333333,1175.35718566445 L1946.91666666667,1211.24547160817 L1962.875,1184.79055613486 L1978.83333333333,1235.55029024207 L1994.79166666667,1276.01361201873 L2010.75,1267.95539153351 L2026.70833333333,1315.14899605719 L2042.66666666667,1327.01804015488 L2058.625,1344.56984479278 L2074.58333333333,1362.3969437211 L2090.54166666667,1359.23555679776 L2106.5,1372.70048540614 L2122.45833333333,1348.04497809735 L2138.41666666667,1368.37292239474 L2154.375,1353.0976958115 L2170.33333333333,1349.71341335204 L2186.29166666667,1336.05694327962 L2202.25,1280.31765745203 L2218.20833333333,1295.57881782179 L2234.16666666667,1238.20330374855 L2250.125,1180.74896642096 L2266.08333333333,1169.98665150716 L2282.04166666667,1151.96065622161 L2298,1107.10374438593 L2313.95833333333,1038.18176048522 L2329.91666666667,1027.09461332898 L2345.875,987.743519900023 L2361.83333333333,995.560352048482 L2377.79166666667,995.560352048482 L2393.75,995.560352048482 L2409.70833333333,995.560352048482 L2425.66666666667,995.560352048482 L2441.625,995.560352048482 L2457.58333333333,995.560352048482 L2473.54166666667,995.560352048482 L2489.5,995.560352048482 L2505.45833333333,995.560352048482 L2521.41666666667,995.560352048482 L2537.375,995.560352048482 L2553.33333333333,995.560352048482 L2569.29166666667,995.560352048482 L2585.25,995.560352048482 L2601.20833333333,995.560352048482 L2617.16666666667,995.560352048482 L2633.125,995.560352048482 L2649.08333333333,995.560352048482 L2665.04166666667,995.560352048482 L2681,995.560352048482 L2696.95833333333,995.560352048482 L2712.91666666667,995.560352048482 L2728.875,995.560352048482 L2744.83333333333,995.560352048482 L2760.79166666667,995.560352048482 L2776.75,995.560352048482 L2792.70833333333,995.560352048482 L2872.5,995.560352048482 " PBD:DatasetName="AF2_DS" PBD:DatasetColumn="\\JLEFEBVRENEW\JDIData\DataShort|Sensor">
				</path>
				<path id="Trend2_Plot1" style="font-family:Arial;font-size:33;stroke:#00FFFF;fill:none;stroke-width:2;" d="M0,1032.69158764906 L15.9583333333333,1032.69158764906 L15.9583333333333,1049.28913712538 L31.9166666666667,1049.28913712538 L31.9166666666667,1017.82689547153 L47.875,1017.82689547153 L47.875,1042.53243012143 L63.8333333333333,1042.53243012143 L63.8333333333333,1020.87575275561 L79.7916666666667,1020.87575275561 L79.7916666666667,1069.44679553356 L95.75,1069.44679553356 L95.75,1031.83670727941 L111.708333333333,1031.83670727941 L111.708333333333,1046.49550696399 L127.666666666667,1046.49550696399 L127.666666666667,1052.65476297141 L143.625,1052.65476297141 L143.625,1054.11509567128 L159.583333333333,1054.11509567128 L159.583333333333,1075.60890744749 L175.541666666667,1075.60890744749 L175.541666666667,1073.90401202457 L191.5,1073.90401202457 L191.5,1056.70857200648 L207.458333333333,1056.70857200648 L207.458333333333,1068.34600137961 L223.416666666667,1068.34600137961 L223.416666666667,1059.49099805383 L239.375,1059.49099805383 L239.375,1086.73741796755 L255.333333333333,1086.73741796755 L255.333333333333,1041.68573207191 L271.291666666667,1041.68573207191 L271.291666666667,1034.90433162872 L287.25,1034.90433162872 L287.25,1037.5165059078 L303.208333333333,1037.5165059078 L303.208333333333,1066.85810469779 L319.166666666667,1066.85810469779 L319.166666666667,1042.83341531831 L335.125,1042.83341531831 L335.125,1033.93680784791 L351.083333333333,1033.93680784791 L351.083333333333,1039.84582849828 L367.041666666667,1039.84582849828 L367.041666666667,1040.2900046565 L383,1040.2900046565 L383,1022.56920698954 L398.958333333333,1022.56920698954 L398.958333333333,1014.68398695956 L414.916666666667,1014.68398695956 L414.916666666667,1012.04786739788 L431,1012 M909.625,1043.31778713045 L925.583333333333,1036 L925.583333333333,1040.63968673006 L941.541666666667,1040.63968673006 L941.541666666667,1042.52242109242 L957.5,1042.52242109242 L957.5,1098.5542700386 L973.458333333333,1098.5542700386 L973.458333333333,1114.85519515815 L989.416666666667,1114.85519515815 L989.416666666667,1109.99874112706 L1005.375,1109.99874112706 L1005.375,1153.05615369662 L1021.33333333333,1153.05615369662 L1021.33333333333,1137.24983326763 L1037.29166666667,1137.24983326763 L1037.29166666667,1204.0359646463 L1053.25,1204.0359646463 L1053.25,1173.96134006719 L1069.20833333333,1173.96134006719 L1069.20833333333,1215.68339779157 L1085.16666666667,1215.68339779157 L1085.16666666667,1216.64471218943 L1101.125,1216.64471218943 L1101.125,1237.21636582395 L1117.08333333333,1237.21636582395 L1117.08333333333,1255.00779891241 L1133.04166666667,1255.00779891241 L1133.04166666667,1261.47619988691 L1149,1261.47619988691 L1149,1251.778668981 L1164.95833333333,1251.778668981 L1164.95833333333,1256.77695754206 L1180.91666666667,1256.77695754206 L1180.91666666667,1247.97127125727 L1196.875,1247.97127125727 L1196.875,1239.36426029634 L1212.83333333333,1239.36426029634 L1212.83333333333,1216.95772088242 L1228.79166666667,1216.95772088242 L1228.79166666667,1200.64118876155 L1244.75,1200.64118876155 L1244.75,1186.72018760681 L1260.70833333333,1186.72018760681 L1260.70833333333,1198.53069950077 L1276.66666666667,1198.53069950077 L1276.66666666667,1164.00801067551 L1292.625,1164.00801067551 L1292.625,1129.31748182754 L1308.58333333333,1129.31748182754 L1308.58333333333,1124.6673566965 L1324.54166666667,1124.6673566965 L1324.54166666667,1109.98313209154 L1340.5,1109.98313209154 L1340.5,1070.70415753025 L1356.45833333333,1070.70415753025 L1356.45833333333,1062.58217149245 L1372.41666666667,1062.58217149245 L1372.41666666667,1030.2308967295 L1388,1030 M1867.125,1043.38522652587 L1883.08333333333,1036 L1883.08333333333,1060.56126071292 L1899.04166666667,1060.56126071292 L1899.04166666667,1070.38139389333 L1915,1070.38139389333 L1915,1143.56038974472 L1930.95833333333,1143.56038974472 L1930.95833333333,1162.52874570236 L1946.91666666667,1162.52874570236 L1946.91666666667,1188.68675474606 L1962.875,1188.68675474606 L1962.875,1228.59088016142 L1978.83333333333,1228.59088016142 L1978.83333333333,1243.05053965298 L1994.79166666667,1243.05053965298 L1994.79166666667,1306.47299277414 L2010.75,1306.47299277414 L2010.75,1292.18850679608 L2026.70833333333,1292.18850679608 L2026.70833333333,1330.47869301582 L2042.66666666667,1330.47869301582 L2042.66666666667,1359.57790221188 L2058.625,1359.57790221188 L2058.625,1370.00451091163 L2074.58333333333,1370.00451091163 L2074.58333333333,1393.6428049809 L2090.54166666667,1393.6428049809 L2090.54166666667,1400 L2106.5,1400 L2106.5,1383.15282720148 L2122.45833333333,1383.15282720148 L2122.45833333333,1386.9649213139 L2138.41666666667,1386.9649213139 L2138.41666666667,1375.02991986975 L2154.375,1375.02991986975 L2154.375,1374.01739739403 L2170.33333333333,1374.01739739403 L2170.33333333333,1342.00443981521 L2186.29166666667,1342.00443981521 L2186.29166666667,1320.93001773136 L2202.25,1320.93001773136 L2202.25,1291.94213205443 L2218.20833333333,1291.94213205443 L2218.20833333333,1291.91419648435 L2234.16666666667,1291.91419648435 L2234.16666666667,1255.59428980787 L2250.125,1255.59428980787 L2250.125,1212.82821430026 L2266.08333333333,1212.82821430026 L2266.08333333333,1193.20860990672 L2282.04166666667,1193.20860990672 L2282.04166666667,1158.82305098419 L2298,1158.82305098419 L2298,1116.11723808509 L2313.95833333333,1116.11723808509 L2313.95833333333,1086.72071899342 L2329.91666666667,1086.72071899342 L2329.91666666667,1056.98501071443 L2329,1057 " PBD:DatasetName="AF2_DS" PBD:DatasetColumn="\\JLEFEBVRENEW\JDIData\DataShort|Sensor|LoLo">
				</path>
				<path id="Trend2_Plot2" style="font-family:Arial;font-size:33;stroke:#FFFF00;fill:none;stroke-width:2;" d="M0,741.02314326289 L15.9583333333333,741.02314326289 L15.9583333333333,664.391831362992 L31.9166666666667,664.391831362992 L31.9166666666667,620.012977882051 L47.875,620.012977882051 L47.875,530.526837520403 L63.8333333333333,530.526837520403 L63.8333333333333,499.492809801771 L79.7916666666667,499.492809801771 L79.7916666666667,407.449666486772 L95.75,407.449666486772 L95.75,390.286609822773 L111.708333333333,390.286609822773 L111.708333333333,334.336408793457 L127.666666666667,334.336408793457 L127.666666666667,301.244857195148 L143.625,301.244857195148 L143.625,277.783433348878 L159.583333333333,277.783433348878 L159.583333333333,233.552215488675 L175.541666666667,233.552215488675 L175.541666666667,224.501836563867 L191.5,224.501836563867 L191.5,248.54666181351 L207.458333333333,248.54666181351 L207.458333333333,229.123554293669 L223.416666666667,229.123554293669 L223.416666666667,241.403710786059 L239.375,241.403710786059 L239.375,233.899808511411 L255.333333333333,233.899808511411 L255.333333333333,314.726071198225 L271.291666666667,314.726071198225 L271.291666666667,355.210087500233 L287.25,355.210087500233 L287.25,381.156087549181 L303.208333333333,381.156087549181 L303.208333333333,406.440263698896 L319.166666666667,406.440263698896 L319.166666666667,473.746192096211 L335.125,473.746192096211 L335.125,544.385407015016 L351.083333333333,544.385407015016 L351.083333333333,619.10226699106 L367.041666666667,619.10226699106 L367.041666666667,666.369751404752 L383,666.369751404752 L383,765.66416997661 L398.958333333333,765.66416997661 L398.958333333333,828.611206732019 L414.916666666667,828.611206732019 L414.916666666667,905.026265958659 L431,905 M909.625,932.536028234306 L925.583333333333,926 L925.583333333333,893.532953070654 L941.541666666667,893.532953070654 L941.541666666667,808.867237104066 L957.5,808.867237104066 L957.5,692.695093224987 L973.458333333333,692.695093224987 L973.458333333333,617.9893947587 L989.416666666667,617.9893947587 L989.416666666667,550.530571953527 L1005.375,550.530571953527 L1005.375,449.88851840517 L1021.33333333333,449.88851840517 L1021.33333333333,412.730284945098 L1037.29166666667,412.730284945098 L1037.29166666667,312.873001765861 L1053.25,312.873001765861 L1053.25,285.677985790684 L1069.20833333333,285.677985790684 L1069.20833333333,210.298473193406 L1085.16666666667,210.298473193406 L1085.16666666667,179.162886569465 L1101.125,179.162886569465 L1101.125,144.226001270819 L1117.08333333333,144.226001270819 L1117.08333333333,102.557802451161 L1133.04166666667,102.557802451161 L1133.04166666667,87.9684535547524 L1149,87.9684535547524 L1149,105.759461457443 L1164.95833333333,105.759461457443 L1164.95833333333,91.8671798161056 L1180.91666666667,91.8671798161056 L1180.91666666667,100.84070657216 L1196.875,100.84070657216 L1196.875,126.517163439057 L1212.83333333333,126.517163439057 L1212.83333333333,185.671976279241 L1228.79166666667,185.671976279241 L1228.79166666667,234.727760756894 L1244.75,234.727760756894 L1244.75,273.449648020787 L1260.70833333333,273.449648020787 L1260.70833333333,313.033593495558 L1276.66666666667,313.033593495558 L1276.66666666667,387.975325099383 L1292.625,387.975325099383 L1292.625,475.210504261598 L1308.58333333333,475.210504261598 L1308.58333333333,558.368407034378 L1324.54166666667,558.368407034378 L1324.54166666667,615.835962682208 L1340.5,615.835962682208 L1340.5,731.139795632169 L1356.45833333333,731.139795632169 L1356.45833333333,793.933350642827 L1372.41666666667,793.933350642827 L1372.41666666667,892.945451197475 L1388,893 M1867.125,932.690023308855 L1883.08333333333,926 L1883.08333333333,879.693360011821 L1899.04166666667,879.693360011821 L1899.04166666667,789.992131149649 L1915,789.992131149649 L1915,663.978774983805 L1930.95833333333,663.978774983805 L1930.95833333333,589.281392826294 L1946.91666666667,589.281392826294 L1946.91666666667,497.660410295862 L1962.875,497.660410295862 L1962.875,400.89689171616 L1978.83333333333,400.89689171616 L1978.83333333333,339.665107305488 L1994.79166666667,339.665107305488 L1994.79166666667,248.927399227564 L2010.75,248.927399227564 L2010.75,207.001424961536 L2026.70833333333,207.001424961536 L2026.70833333333,137.669497563557 L2042.66666666667,137.669497563557 L2042.66666666667,84.9206706758092 L2058.625,84.9206706758092 L2058.625,57.5974230970688 L2074.58333333333,57.5974230970688 L2074.58333333333,15.6269209799103 L2090.54166666667,15.6269209799103 L2090.54166666667,0 L2106.5,0 L2106.5,21.3086477004776 L2122.45833333333,21.3086477004776 L2122.45833333333,11.5031983123397 L2138.41666666667,11.5031983123397 L2138.41666666667,21.8912728663402 L2154.375,21.8912728663402 L2154.375,38.8413215188276 L2170.33333333333,38.8413215188276 L2170.33333333333,105.639217462698 L2186.29166666667,105.639217462698 L2186.29166666667,157.95868438327 L2202.25,157.95868438327 L2202.25,205.777050621252 L2218.20833333333,205.777050621252 L2218.20833333333,255.081740322149 L2234.16666666667,255.081740322149 L2234.16666666667,327.779986019301 L2250.125,327.779986019301 L2250.125,420.55472230087 L2266.08333333333,420.55472230087 L2266.08333333333,516.784206482631 L2282.04166666667,516.784206482631 L2282.04166666667,584.047494768751 L2298,584.047494768751 L2298,700.444314865217 L2313.95833333333,700.444314865217 L2313.95833333333,780.363083132929 L2329.91666666667,780.363083132929 L2329.91666666667,872.809794440286 L2329,873 " PBD:DatasetName="AF2_DS" PBD:DatasetColumn="\\JLEFEBVRENEW\JDIData\DataShort|Sensor|HiHi">
				</path>
			</svg>
			<svg id="Trend2_MarkerGroup" height="1400" width="3830" style="" x="6" y="41">
				<circle id="Trend2_1" cx="431.375" cy="1012.54786739788" r="8" style="stroke-width:2;stroke:#00FFFF;fill:none;">
				</circle>
				<polyline id="Trend2_1" style="stroke-width:2;stroke:#00FFFF;fill:none;stroke-width:4;" points="903,1036 917,1050 910,1043 903,1050 917,1036">
				</polyline>
				<circle id="Trend2_1" cx="1388.875" cy="1030.7308967295" r="8" style="stroke-width:2;stroke:#00FFFF;fill:none;">
				</circle>
				<polyline id="Trend2_1" style="stroke-width:2;stroke:#00FFFF;fill:none;stroke-width:4;" points="1860,1036 1874,1050 1867,1043 1860,1050 1874,1036">
				</polyline>
				<polyline id="Trend2_1" style="stroke-width:2;stroke:#00FFFF;fill:none;stroke-width:4;" points="2322,1050 2336,1064 2329,1057 2322,1064 2336,1050">
				</polyline>
				<polygon id="Trend2_2" points="425.375,899.526265958659 437.375,899.526265958659 437.375,911.526265958659 425.375,911.526265958659 425.375,899.526265958659" style="stroke-width:2;stroke:#FFFF00;fill:#FFFF00;" transform="rotate(45,431.375,905.526265958659) ">
				</polygon>
				<polyline id="Trend2_2" style="stroke-width:2;stroke:#FFFF00;fill:none;stroke-width:4;" points="903,926 917,940 910,933 903,940 917,926">
				</polyline>
				<polygon id="Trend2_2" points="1382.875,887.445451197475 1394.875,887.445451197475 1394.875,899.445451197475 1382.875,899.445451197475 1382.875,887.445451197475" style="stroke-width:2;stroke:#FFFF00;fill:#FFFF00;" transform="rotate(45,1388.875,893.445451197475) ">
				</polygon>
				<polyline id="Trend2_2" style="stroke-width:2;stroke:#FFFF00;fill:none;stroke-width:4;" points="1860,926 1874,940 1867,933 1860,940 1874,926">
				</polyline>
				<polyline id="Trend2_2" style="stroke-width:2;stroke:#FFFF00;fill:none;stroke-width:4;" points="2322,866 2336,880 2329,873 2322,880 2336,866">
				</polyline>
				<circle id="Trend2_1" cx="686.708333333333" cy="996.060352048482" r="8" style="stroke-width:2;stroke:#00FF00;fill:#00FF00;">
				</circle>
				<circle id="Trend2_1" cx="1388.875" cy="1003.42668009439" r="8" style="stroke-width:2;stroke:#00FF00;fill:#00FF00;">
				</circle>
				<circle id="Trend2_1" cx="2091.04166666667" cy="1359.73555679776" r="8" style="stroke-width:2;stroke:#00FF00;fill:#00FF00;">
				</circle>
				<circle id="Trend2_2" cx="399.458333333333" cy="1015.18398695956" r="8" style="stroke-width:2;stroke:#00FFFF;fill:none;">
				</circle>
				<circle id="Trend2_2" cx="1197.375" cy="1239.86426029634" r="8" style="stroke-width:2;stroke:#00FFFF;fill:none;">
				</circle>
				<circle id="Trend2_2" cx="2011.25" cy="1292.68850679608" r="8" style="stroke-width:2;stroke:#00FFFF;fill:none;">
				</circle>
				<polygon id="Trend2_3" points="393.458333333333,823.111206732019 405.458333333333,823.111206732019 405.458333333333,835.111206732019 393.458333333333,835.111206732019 393.458333333333,823.111206732019" style="stroke-width:2;stroke:#FFFF00;fill:#FFFF00;" transform="rotate(45,399.458333333333,829.111206732019) ">
				</polygon>
				<polygon id="Trend2_3" points="1191.375,121.017163439057 1203.375,121.017163439057 1203.375,133.017163439057 1191.375,133.017163439057 1191.375,121.017163439057" style="stroke-width:2;stroke:#FFFF00;fill:#FFFF00;" transform="rotate(45,1197.375,127.017163439057) ">
				</polygon>
				<polygon id="Trend2_3" points="2005.25,201.501424961536 2017.25,201.501424961536 2017.25,213.501424961536 2005.25,213.501424961536 2005.25,201.501424961536" style="stroke-width:2;stroke:#FFFF00;fill:#FFFF00;" transform="rotate(45,2011.25,207.501424961536) ">
				</polygon>
			</svg>
			<g id="Trend2_YScaleTextGroup" style="font-family:Arial;font-size:33;stroke:#FFFFFF;fill:#FFFFFF;" transform="translate(8,41)">
				<text id="Max_0" x="2" y="33">2.6599</text>
				<text id="Min_0" x="2" y="1394">-1.08057</text>
				<text x="0" y="1187.95324370678">-0.5</text>
				<text x="0" y="1000.81087710099">0</text>
				<text x="0" y="813.668510495193">0.5</text>
				<text x="0" y="626.526143889399">1</text>
				<text x="0" y="439.383777283604">1.5</text>
				<text x="0" y="252.241410677809">2</text>
				<text x="0" y="65.0990440720147">2.5</text>
			</g>
		</svg>
	</g>
	<script language="JavaScript" type="text/javascript"> 
        
        function SVG_doc_loaded(evt)
	{
	    var parentDoc = evt.getTarget().getOwnerDocument();
	    var elem = parentDoc.createElement("Ready");
	    evt.getTarget().appendChild(elem);

        }</script>
</svg>
