<?xml version="1.0" encoding="UTF-8"?>
<svg height="100%" viewBox="0 974 8356 3233" width="100%" fill="#C0C0C0" image-rendering="optimizeSpeed" onload="SVG_doc_loaded(evt);" PB:pid="" xlink:xid="" xmlns:svg="OSI_SVG_20090601" xmlns:xlink="http://www.w3.org/1999/xlink" xmlns:PB="urn:osisoft-com-pb" xmlns:PBI="urn:osisoft-com-interface" xmlns:PBD="urn:osisoft-com-data" xmlns:xsi="http://www.w3.org/1999/XMLSchema/instance">
	<defs><PBD:DataSetUses tag="AF2_DS.\\JLEFEBVRENEW\JDIData\DataEven|Sensor" PB:Parent="AF2_DS" PB:BO="PWSPIDataSetsBO.CBODataSets">
			<PBI:Symbol name="Trend1_Plot0" PB:Type="10" PB:Parent="Trend1">
			</PBI:Symbol>
		</PBD:DataSetUses><PBD:DataSetUses tag="AF2_DS.\\JLEFEBVRENEW\JDIData\DataEven|Sensor|HH" PB:Parent="AF2_DS" PB:BO="PWSPIDataSetsBO.CBODataSets">
			<PBI:Symbol name="Trend1_Plot1" PB:Type="10" PB:Parent="Trend1">
			</PBI:Symbol>
		</PBD:DataSetUses><PBD:DataSetUses tag="AF2_DS.\\JLEFEBVRENEW\JDIData\DataEven|Sensor|LoLo" PB:Parent="AF2_DS" PB:BO="PWSPIDataSetsBO.CBODataSets">
			<PBI:Symbol name="Trend1_Plot2" PB:Type="10" PB:Parent="Trend1">
			</PBI:Symbol>
		</PBD:DataSetUses><PBD:DataSetUses tag="AF2_DS.\\JLEFEBVRENEW\JDIData\DataShort|Sensor" PB:Parent="AF2_DS" PB:BO="PWSPIDataSetsBO.CBODataSets">
			<PBI:Symbol name="Trend2_Plot0" PB:Type="10" PB:Parent="Trend2">
			</PBI:Symbol>
		</PBD:DataSetUses><PBD:DataSetUses tag="AF2_DS.\\JLEFEBVRENEW\JDIData\DataShort|Sensor|HH" PB:Parent="AF2_DS" PB:BO="PWSPIDataSetsBO.CBODataSets">
			<PBI:Symbol name="Trend2_Plot1" PB:Type="10" PB:Parent="Trend2">
			</PBI:Symbol>
		</PBD:DataSetUses><PBD:DataSetUses tag="AF2_DS.\\JLEFEBVRENEW\JDIData\DataShort|Sensor|LoLo" PB:Parent="AF2_DS" PB:BO="PWSPIDataSetsBO.CBODataSets">
			<PBI:Symbol name="Trend2_Plot2" PB:Type="10" PB:Parent="Trend2">
			</PBI:Symbol>
		</PBD:DataSetUses>
	</defs>
	<rect x="0" y="0" width="8356" height="4207" PB:DocMajorVersionNum="3" PB:DocMinorVersionNum="26" PB:DocGroup="1" PB:wnHeight="670" PB:wnWidth="1616" PB:wnState="2" PB:Zoom="50" PB:LocalID="1041" PB:DisplayServerTimeZone="True" PB:Type="55" PB:NamedValues="AFDisplayBuilder.Upgraded,1">
	</rect>
	<PB:Dataset id="AF2_DS" PB:Type="57" PB:Context="2" PB:Description="" PB:RefreshInterval="10000" PB:Stepped="False" PB:DSType="3" PB:DSVisible="True">
		<PB:DSDatapoint id="\\JLEFEBVRENEW\JDIData\DataEven|Sensor_DP"/>
		<PB:DSDatapoint id="\\JLEFEBVRENEW\JDIData\DataEven|Sensor|HH_DP"/>
		<PB:DSDatapoint id="\\JLEFEBVRENEW\JDIData\DataEven|Sensor|LoLo_DP"/>
		<PB:DSDatapoint id="\\JLEFEBVRENEW\JDIData\DataShort|Sensor_DP"/>
		<PB:DSDatapoint id="\\JLEFEBVRENEW\JDIData\DataShort|Sensor|HH_DP"/>
		<PB:DSDatapoint id="\\JLEFEBVRENEW\JDIData\DataShort|Sensor|LoLo_DP"/>
	</PB:Dataset>
	<PB:Dataset id="E_DS_DS" PB:Type="57" PB:Context="2" PB:Description="" PB:RefreshInterval="5000" PB:Stepped="False" PB:DSType="3" PB:DSVisible="False">
	</PB:Dataset>
	<PB:Dataset id="MODULEDB_DS" PB:Type="57" PB:Context="2" PB:Description="" PB:RefreshInterval="5000" PB:Stepped="False" PB:DSType="3" PB:DSVisible="False">
	</PB:Dataset>
	<g id="Trend1" PB:Type="10">
		<PB:TrendLogical id="Trend1_Logical" PB:ValueScalePosition="1" PB:BackgroundColor="8421504" PB:CurrentTrace="3" PB:DisplayScaleInside="True" PB:EnableScript="True" PB:Enabled="True" PB:EndTime="*+1m" PB:FillColor="16711680" PB:FontBold="False" PB:FontItalic="False" PB:FontName="Arial" PB:FontSize="10" PB:FontStrikethrough="False" PB:FontUnderline="False" PB:Height="2096" PB:IsMultiState="False" PB:Left="-14741" PB:LineColor="16777215" PB:MultipleScales="False" PB:Name="Trend1" PB:PlotTimeStyle="0" PB:Rotation="0" PB:ShowDescription="False" PB:ShowEngUnits="True" PB:ShowGrids="True" PB:ShowTagName="True" PB:ShowServerName="False" PB:ShowTitle="True" PB:ShowTraceMarkers="False" PB:ShowValue="True" PB:StartTime="*-5m" PB:Top="14937" PB:TraceCount="3" PB:TrendTitle="Plot-0" PB:Visible="True" PB:Width="4694">
			<PB:TraceElem id="PB:TraceElem_1" PB:ShowLinearRegression="False" PB:ScaleLogarithmic="False" PB:ScaleMax="Autorange" PB:ScaleMin="Autorange" PB:Trace="AF2.\\JLEFEBVRENEW\JDIData\DataEven|Sensor" PB:ScaleFormat="General" PB:DisplayDigits="-5" PB:CanonicalNumberFormat="General" PB:TagInfoType="1">
			</PB:TraceElem>
			<PB:TraceElem id="PB:TraceElem_2" PB:ShowLinearRegression="False" PB:ScaleLogarithmic="False" PB:ScaleMax="Autorange" PB:ScaleMin="Autorange" PB:Trace="AF2.\\JLEFEBVRENEW\JDIData\DataEven|Sensor|HH" PB:ScaleFormat="General" PB:DisplayDigits="-5" PB:CanonicalNumberFormat="General" PB:TagInfoType="1">
			</PB:TraceElem>
			<PB:TraceElem id="PB:TraceElem_3" PB:ShowLinearRegression="False" PB:ScaleLogarithmic="False" PB:ScaleMax="Autorange" PB:ScaleMin="Autorange" PB:Trace="AF2.\\JLEFEBVRENEW\JDIData\DataEven|Sensor|LoLo" PB:ScaleFormat="General" PB:DisplayDigits="-5" PB:CanonicalNumberFormat="General" PB:TagInfoType="1">
			</PB:TraceElem>
			<PB:Format id="PB:Format_1" PB:Name="Horz. Axis" PB:LineColor="0" PB:LineStyle="0" PB:LineWidth="1" PB:MarkerStyle="-1">
			</PB:Format>
			<PB:Format id="PB:Format_2" PB:Name="Background" PB:LineColor="8421504" PB:LineStyle="-1" PB:LineWidth="1" PB:MarkerStyle="-1">
			</PB:Format>
			<PB:Format id="PB:Format_3" PB:Name="Horz. Major Grid" PB:LineColor="0" PB:LineStyle="0" PB:LineWidth="1" PB:MarkerStyle="-1">
			</PB:Format>
			<PB:Format id="PB:Format_4" PB:Name="Horz. Minor Grid" PB:LineColor="0" PB:LineStyle="0" PB:LineWidth="1" PB:MarkerStyle="-1">
			</PB:Format>
			<PB:Format id="PB:Format_5" PB:Name="Pen 1" PB:LineColor="65280" PB:LineStyle="0" PB:LineWidth="1" PB:MarkerStyle="0">
			</PB:Format>
			<PB:Format id="PB:Format_6" PB:Name="Pen 2" PB:LineColor="16776960" PB:LineStyle="0" PB:LineWidth="1" PB:MarkerStyle="1">
			</PB:Format>
			<PB:Format id="PB:Format_7" PB:Name="Pen 3" PB:LineColor="65535" PB:LineStyle="0" PB:LineWidth="1" PB:MarkerStyle="2">
			</PB:Format>
			<PB:Format id="PB:Format_8" PB:Name="Pen 4" PB:LineColor="16711935" PB:LineStyle="0" PB:LineWidth="1" PB:MarkerStyle="3">
			</PB:Format>
			<PB:Format id="PB:Format_9" PB:Name="Pen 5" PB:LineColor="255" PB:LineStyle="0" PB:LineWidth="1" PB:MarkerStyle="4">
			</PB:Format>
			<PB:Format id="PB:Format_10" PB:Name="Pen 6" PB:LineColor="16777215" PB:LineStyle="0" PB:LineWidth="1" PB:MarkerStyle="5">
			</PB:Format>
			<PB:Format id="PB:Format_11" PB:Name="Pen 7" PB:LineColor="16711680" PB:LineStyle="0" PB:LineWidth="1" PB:MarkerStyle="6">
			</PB:Format>
			<PB:Format id="PB:Format_12" PB:Name="Pen 8" PB:LineColor="0" PB:LineStyle="0" PB:LineWidth="1" PB:MarkerStyle="7">
			</PB:Format>
			<PB:Format id="PB:Format_13" PB:Name="Pen 9" PB:LineColor="8388608" PB:LineStyle="0" PB:LineWidth="1" PB:MarkerStyle="8">
			</PB:Format>
			<PB:Format id="PB:Format_14" PB:Name="Pen 10" PB:LineColor="32768" PB:LineStyle="0" PB:LineWidth="1" PB:MarkerStyle="9">
			</PB:Format>
			<PB:Format id="PB:Format_15" PB:Name="Pen 11" PB:LineColor="8388736" PB:LineStyle="0" PB:LineWidth="1" PB:MarkerStyle="10">
			</PB:Format>
			<PB:Format id="PB:Format_16" PB:Name="Pen 12" PB:LineColor="8433626" PB:LineStyle="0" PB:LineWidth="1" PB:MarkerStyle="11">
			</PB:Format>
			<PB:Format id="PB:Format_17" PB:Name="Text" PB:LineColor="16777215" PB:LineStyle="-1" PB:LineWidth="1" PB:MarkerStyle="-1">
			</PB:Format>
			<PB:Format id="PB:Format_18" PB:Name="Vert. Axis" PB:LineColor="0" PB:LineStyle="0" PB:LineWidth="1" PB:MarkerStyle="-1">
			</PB:Format>
			<PB:Format id="PB:Format_19" PB:Name="Vert. Major Grid" PB:LineColor="0" PB:LineStyle="0" PB:LineWidth="1" PB:MarkerStyle="-1">
			</PB:Format>
			<PB:Format id="PB:Format_20" PB:Name="Vert. Minor Grid" PB:LineColor="0" PB:LineStyle="0" PB:LineWidth="1" PB:MarkerStyle="-1">
			</PB:Format>
		</PB:TrendLogical>
		<svg id="Trend1_Graphical" height="2096" width="4694" x="259" y="63">
			<PB:RefreshData id="Trend1_RefreshData" PB:bEngUnits="True" PB:bLogarithmic="False" PB:bMarkers="False" PB:bTagname="True" PB:bValue="True" PB:fXUnits="10.608333333333333333333333333" PB:iGrdBegX="6" PB:iGrdBegY="41" PB:iGrdHght="2004" PB:iGrdWdth="3819" PB:iMinPerCol="1" PB:iNumTrcs="3" PB:iNumXCols="0" PB:bGrids="True" PB:Updateable="True" PB:iSnglLnHght="33" PB:iScaleWidth="0" PB:bOmitScaleText="False" PB:bOmitTimeText="False">
			</PB:RefreshData>
			<rect id="Trend1_Background" x="0" y="0" width="4694" height="2096" fill="#808080">
			</rect>
			<g id="Trend1_PlotTitleGroup" style="font-family:Arial;font-size:33;stroke:#FFFFFF;fill:#FFFFFF;">
				<text x="6" y="33" style="font-family:Arial;font-size:33;stroke:#FFFFFF;fill:#FFFFFF;">Plot-0</text>
			</g>
			<svg id="Trend1_AxesGroup" height="2004" width="3819" x="6" y="41">
				<rect id="Trend1_GridBackground" x="0" y="0" width="3819" height="2004" style="fill:#808080;stroke:none;">
				</rect>
				<polyline id="Trend1_VertAxis_1" style="stroke-width:3;fill:none;stroke:#000000;" points="0,0 0,2004">
				</polyline>
				<polyline id="Trend1_VertAxis_Last" style="stroke-width:3;fill:none;stroke:#000000;stroke-dasharray:10 10 10 10;" points="3819,0 3819,2004">
				</polyline>
				<polyline id="Trend1_HorizAxis" style="stroke-width:3;fill:none;stroke:#000000;" points="0,2004 3819,2004">
				</polyline>
			</svg>
			<svg id="Trend1_GridGroup" height="2004" width="3819" x="6" y="41">
				<path id="Trend1_HorizGridLine" style="stroke-width:2;stroke:#000000;" d="M435,0 L435,2004">
				</path>
				<path id="Trend1_HorizGridLine" style="stroke-width:2;stroke:#000000;" d="M1071,0 L1071,2004">
				</path>
				<path id="Trend1_HorizGridLine" style="stroke-width:2;stroke:#000000;" d="M1708,0 L1708,2004">
				</path>
				<path id="Trend1_HorizGridLine" style="stroke-width:2;stroke:#000000;" d="M2344,0 L2344,2004">
				</path>
				<path id="Trend1_HorizGridLine" style="stroke-width:2;stroke:#000000;" d="M2981,0 L2981,2004">
				</path>
				<path id="Trend1_HorizGridLine" style="stroke-width:2;stroke:#000000;" d="M3617,0 L3617,2004">
				</path>
				<path id="Trend1_VertGridLine" style="stroke-width:2;stroke:#000000" d="M0,2110.14 L3819,2110.14">
				</path>
				<path id="Trend1_VertGridLine" style="stroke-width:2;stroke:#000000" d="M0,1784.1 L3819,1784.1">
				</path>
				<path id="Trend1_VertGridLine" style="stroke-width:2;stroke:#000000" d="M0,1458.06 L3819,1458.06">
				</path>
				<path id="Trend1_VertGridLine" style="stroke-width:2;stroke:#000000" d="M0,1132.02 L3819,1132.02">
				</path>
				<path id="Trend1_VertGridLine" style="stroke-width:2;stroke:#000000" d="M0,805.98 L3819,805.98">
				</path>
				<path id="Trend1_VertGridLine" style="stroke-width:2;stroke:#000000" d="M0,479.94 L3819,479.94">
				</path>
				<path id="Trend1_VertGridLine" style="stroke-width:2;stroke:#000000" d="M0,153.9 L3819,153.9">
				</path>
				<path id="Trend1_VertGridLine" style="stroke-width:2;stroke:#000000" d="M0,0 L3819,0">
				</path>
			</svg>
			<g id="Trend1_XScaleTextGroup" style="font-family:Arial;font-size:33;stroke:#FFFFFF;fill:#FFFFFF;">
				<text id="Trend1_XScaleTextBegin" x="6" y="2080" style="font-family:Arial;font-size:33;stroke:#FFFFFF;fill:#FFFFFF;">2016/04/28 16:57:19</text>
				<text id="Trend1_XScaleTextSpan" x="1792" y="2080" style="font-family:Arial;font-size:33;stroke:#FFFFFF;fill:#FFFFFF;">6.00 minutes</text>
				<text id="Trend1_XScaleTextEnd" x="3440" y="2080" style="font-family:Arial;font-size:33;stroke:#FFFFFF;fill:#FFFFFF;">2016/04/28 17:03:19</text>
			</g>
			<g id="Trend1_TagNameGroup" transform="translate(3851,43)">
				<circle id="Trend1_0" cx="0.5" cy="17" r="8" style="stroke-width:2;stroke:#00FF00;fill:#00FF00;">
				</circle>
				<text id="Trend1_TagName0" x="19.1860465116279" y="33" style="font-family:Arial;font-size:33;stroke:#00FF00;fill:#00FF00;">DataEven.Sensor</text>
				<text id="Trend1_TagValue0" x="19.1860465116279" y="68" style="font-family:Arial;font-size:33;stroke:#00FF00;fill:#00FF00;">-0.50776</text>
				<text id="Trend1_EngUnits0" x="19.1860465116279" y="103" style="font-family:Arial;font-size:33;stroke:#00FF00;fill:#00FF00;">
				</text>
				<circle id="Trend1_1" cx="0.5" cy="122" r="8" style="stroke-width:2;stroke:#00FFFF;fill:none;">
				</circle>
				<text id="Trend1_TagName1" x="19.1860465116279" y="138" style="font-family:Arial;font-size:33;stroke:#00FFFF;fill:#00FFFF;">OSIDemo_DataEven.HH</text>
				<text id="Trend1_TagValue1" x="19.1860465116279" y="173" style="font-family:Arial;font-size:33;stroke:#00FFFF;fill:#00FFFF;">No Data</text>
				<text id="Trend1_EngUnits1" x="19.1860465116279" y="208" style="font-family:Arial;font-size:33;stroke:#00FFFF;fill:#00FFFF;">
				</text>
				<polygon id="Trend1_2" points="-5.5,221 6.5,221 6.5,233 -5.5,233 -5.5,221" style="stroke-width:2;stroke:#FFFF00;fill:#FFFF00;" transform="rotate(45,0.5,227) ">
				</polygon>
				<text id="Trend1_TagName2" x="19.1860465116279" y="243" style="font-family:Arial;font-size:33;stroke:#FFFF00;fill:#FFFF00;">OSIDemo_DataEven.LoLo</text>
				<text id="Trend1_TagValue2" x="19.1860465116279" y="278" style="font-family:Arial;font-size:33;stroke:#FFFF00;fill:#FFFF00;">No Data</text>
				<text id="Trend1_EngUnits2" x="19.1860465116279" y="313" style="font-family:Arial;font-size:33;stroke:#FFFF00;fill:#FFFF00;">
				</text>
			</g>
			<svg id="Trend1_TraceGroup" height="2004" width="3819" style="font-family:Arial;font-size:33;stroke:#FFFFFF;fill:#FFFFFF;" x="6" y="41">
				<path id="Trend1_Plot0" style="font-family:Arial;font-size:33;stroke:#00FF00;fill:none;stroke-width:2;" d="M-10.6083333333333,153.895493960606 L0,153.895493960606 L10.6083333333333,153.895493960606 L21.2166666666667,153.895493960606 L31.825,153.895493960606 L42.4333333333333,153.895493960606 L53.0416666666667,153.895493960606 L63.65,153.895493960606 L74.2583333333333,153.895493960606 L84.8666666666667,153.895493960606 L95.475,153.895493960606 L106.083333333333,153.895493960606 L116.691666666667,153.895493960606 L127.3,153.895493960606 L137.908333333333,153.895493960606 L148.516666666667,153.895493960606 L159.125,153.895493960606 L169.733333333333,153.895493960606 L180.341666666667,153.895493960606 L190.95,153.895493960606 L201.558333333333,153.895493960606 L212.166666666667,153.895493960606 L222.775,153.895493960606 L233.383333333333,153.895493960606 L243.991666666667,153.895493960606 L254.6,153.895493960606 L265.208333333333,153.895493960606 L275.816666666667,153.895493960606 L286.425,153.895493960606 L297.033333333333,153.895493960606 L307.641666666667,153.895493960606 L318.25,153.895493960606 L328.858333333333,153.895493960606 L339.466666666667,153.895493960606 L350.075,153.895493960606 L360.683333333333,153.895493960606 L371.291666666667,153.895493960606 L381.9,153.895493960606 L392.508333333333,153.895493960606 L403.116666666667,153.895493960606 L413.725,153.895493960606 L424.333333333333,153.895493960606 L434.941666666667,215.84781117835 L445.55,173.325075609401 L456.158333333333,234.030576256323 L466.766666666667,399.637068557854 L477.375,528.62243601255 L487.983333333333,562.769772586228 L498.591666666667,559.451229886778 L509.2,786.842922145459 L519.808333333333,736.529258749913 L530.416666666667,808.82375332446 L541.025,844.409830050488 L551.633333333333,1065.70302661277 L562.241666666667,1153.52423899202 L572.85,1164.91520771466 L583.458333333333,1291.14957455307 L594.066666666667,1320.19149261551 L604.675,1483.72425969582 L615.283333333333,1442.33179098807 L625.891666666667,1624.45408828015 L636.5,1578.83967814477 L647.108333333333,1333.95380321589 L657.716666666667,1470.84609277054 L668.325,1695.27792981824 L678.933333333333,1734.87142910008 L689.541666666667,1557.84824678596 L700.15,1772.08044445025 L710.758333333333,1786.24611911194 L721.366666666667,1956.72626614263 L731.975,1677.52219606082 L742.583333333333,1708.24853464258 L753.191666666667,1686.34449256825 L763.8,2000.36436105036 L774.408333333333,1772.24796681277 L785.016666666667,1744.14965311303 L795.625,1843.2562438424 L806.233333333333,1859.76763326006 L816.841666666667,1821.17924914864 L827.45,1716.88353773115 L838.058333333333,1591.97797525166 L848.666666666667,1601.10579688137 L859.275,1574.51051291444 L869.883333333333,1408.59305099796 L880.491666666667,1442.83921130266 L891.1,1406.79122297392 L901.708333333333,1273.23391802943 L912.316666666667,1477.74461098762 L922.925,1331.51234330966 L933.533333333333,1197.01580144634 L944.141666666667,1001.31969984784 L954.75,1050.18137570054 L965.358333333333,993.398650014564 L975.966666666667,1040.61697959452 L986.575,671.43548491462 L997.183333333333,754.806615788865 L1007.79166666667,603.664580367587 L1018.4,624.773959852113 L1029.00833333333,522.351905900276 L1039.61666666667,438.102836528219 L1050.225,172.653220214344 L1060.83333333333,103.143682574533 L1071.44166666667,153.895493960606 L1082.05,153.895493960606 L1092.65833333333,153.895493960606 L1103.26666666667,153.895493960606 L1113.875,153.895493960606 L1124.48333333333,153.895493960606 L1135.09166666667,153.895493960606 L1145.7,153.895493960606 L1156.30833333333,153.895493960606 L1166.91666666667,153.895493960606 L1177.525,153.895493960606 L1188.13333333333,153.895493960606 L1198.74166666667,153.895493960606 L1209.35,153.895493960606 L1219.95833333333,153.895493960606 L1230.56666666667,153.895493960606 L1241.175,153.895493960606 L1251.78333333333,153.895493960606 L1262.39166666667,153.895493960606 L1273,153.895493960606 L1283.60833333333,153.895493960606 L1294.21666666667,153.895493960606 L1304.825,153.895493960606 L1315.43333333333,153.895493960606 L1326.04166666667,153.895493960606 L1336.65,153.895493960606 L1347.25833333333,153.895493960606 L1357.86666666667,153.895493960606 L1368.475,153.895493960606 L1379.08333333333,153.895493960606 L1389.69166666667,153.895493960606 L1400.3,153.895493960606 L1410.90833333333,153.895493960606 L1421.51666666667,153.895493960606 L1432.125,153.895493960606 L1442.73333333333,153.895493960606 L1453.34166666667,153.895493960606 L1463.95,153.895493960606 L1474.55833333333,153.895493960606 L1485.16666666667,153.895493960606 L1495.775,153.895493960606 L1506.38333333333,153.895493960606 L1516.99166666667,153.895493960606 L1527.6,153.895493960606 L1538.20833333333,153.895493960606 L1548.81666666667,153.895493960606 L1559.425,153.895493960606 L1570.03333333333,153.895493960606 L1580.64166666667,153.895493960606 L1591.25,153.895493960606 L1601.85833333333,153.895493960606 L1612.46666666667,153.895493960606 L1623.075,153.895493960606 L1633.68333333333,153.895493960606 L1644.29166666667,153.895493960606 L1654.9,153.895493960606 L1665.50833333333,153.895493960606 L1676.11666666667,153.895493960606 L1686.725,153.895493960606 L1697.33333333333,153.895493960606 L1707.94166666667,233.034856416678 L1718.55,228.329756708374 L1729.15833333333,208.656806304504 L1739.76666666667,322.614680827165 L1750.375,510.96397793286 L1760.98333333333,532.152308930795 L1771.59166666667,712.473231529716 L1782.2,711.043406867596 L1792.80833333333,824.651584233634 L1803.41666666667,978.135135257703 L1814.025,1036.52773946173 L1824.63333333333,1140.98092990466 L1835.24166666667,1066.40216530003 L1845.85,1179.75268455482 L1856.45833333333,1183.48428225332 L1867.06666666667,1481.67681601015 L1877.675,1303.84636869703 L1888.28333333333,1393.07081400359 L1898.89166666667,1382.09667135329 L1909.5,1482.06662555142 L1920.10833333333,1657.37543829374 L1930.71666666667,1614.64382420785 L1941.325,1603.03079549258 L1951.93333333333,1656.45470693373 L1962.54166666667,1630.56620190517 L1973.15,1780.03976322092 L1983.75833333333,1825.69320327897 L1994.36666666667,1716.82838600347 L2004.975,1906.21649595279 L2015.58333333333,1700.612042545 L2026.19166666667,1804.39973155618 L2036.8,1819.93440242394 L2047.40833333333,1728.28449378022 L2058.01666666667,2004 L2068.625,1767.20353868653 L2079.23333333333,1728.86709239738 L2089.84166666667,1683.29510796104 L2100.45,1814.64448169327 L2111.05833333333,1516.79355309372 L2121.66666666667,1587.08410917939 L2132.275,1559.73423601438 L2142.88333333333,1610.48605679653 L2153.49166666667,1409.55334955582 L2164.1,1478.59720171387 L2174.70833333333,1445.73819576008 L2185.31666666667,1232.73508100229 L2195.925,1003.9087261859 L2206.53333333333,1256.34959859376 L2217.14166666667,1175.1665081335 L2227.75,887.440386551762 L2238.35833333333,916.561140982559 L2248.96666666667,817.926176072227 L2259.575,879.550571740693 L2270.18333333333,794.355448825906 L2280.79166666667,562.495077663668 L2291.4,583.990134925321 L2302.00833333333,518.509416385944 L2312.61666666667,458.9724914481 L2323.225,265.409250374111 L2333.83333333333,221.517029739222 L2344.44166666667,153.895493960606 L2355.05,153.895493960606 L2365.65833333333,153.895493960606 L2376.26666666667,153.895493960606 L2386.875,153.895493960606 L2397.48333333333,153.895493960606 L2408.09166666667,153.895493960606 L2418.7,153.895493960606 L2429.30833333333,153.895493960606 L2439.91666666667,153.895493960606 L2450.525,153.895493960606 L2461.13333333333,153.895493960606 L2471.74166666667,153.895493960606 L2482.35,153.895493960606 L2492.95833333333,153.895493960606 L2503.56666666667,153.895493960606 L2514.175,153.895493960606 L2524.78333333333,153.895493960606 L2535.39166666667,153.895493960606 L2546,153.895493960606 L2556.60833333333,153.895493960606 L2567.21666666667,153.895493960606 L2577.825,153.895493960606 L2588.43333333333,153.895493960606 L2599.04166666667,153.895493960606 L2609.65,153.895493960606 L2620.25833333333,153.895493960606 L2630.86666666667,153.895493960606 L2641.475,153.895493960606 L2652.08333333333,153.895493960606 L2662.69166666667,153.895493960606 L2673.3,153.895493960606 L2683.90833333333,153.895493960606 L2694.51666666667,153.895493960606 L2705.125,153.895493960606 L2715.73333333333,153.895493960606 L2726.34166666667,153.895493960606 L2736.95,153.895493960606 L2747.55833333333,153.895493960606 L2758.16666666667,153.895493960606 L2768.775,153.895493960606 L2779.38333333333,153.895493960606 L2789.99166666667,153.895493960606 L2800.6,153.895493960606 L2811.20833333333,153.895493960606 L2821.81666666667,153.895493960606 L2832.425,153.895493960606 L2843.03333333333,153.895493960606 L2853.64166666667,153.895493960606 L2864.25,153.895493960606 L2874.85833333333,153.895493960606 L2885.46666666667,153.895493960606 L2896.075,153.895493960606 L2906.68333333333,153.895493960606 L2917.29166666667,153.895493960606 L2927.9,153.895493960606 L2938.50833333333,153.895493960606 L2949.11666666667,153.895493960606 L2959.725,153.895493960606 L2970.33333333333,153.895493960606 L2980.94166666667,0 L2991.55,298.710679172103 L3002.15833333333,385.723357537623 L3012.76666666667,399.916017697097 L3023.375,455.950602702927 L3033.98333333333,425.553735688523 L3044.59166666667,726.458588394134 L3055.2,639.049138831599 L3065.80833333333,981.652878446412 L3182.5,981.652878446412 " PBD:DatasetName="AF2_DS" PBD:DatasetColumn="\\JLEFEBVRENEW\JDIData\DataEven|Sensor">
				</path>
				<path id="Trend1_Plot1" style="font-family:Arial;font-size:33;stroke:#00FFFF;fill:none;stroke-width:2;" d="" PBD:DatasetName="AF2_DS" PBD:DatasetColumn="\\JLEFEBVRENEW\JDIData\DataEven|Sensor|HH">
				</path>
				<path id="Trend1_Plot2" style="font-family:Arial;font-size:33;stroke:#FFFF00;fill:none;stroke-width:2;" d="" PBD:DatasetName="AF2_DS" PBD:DatasetColumn="\\JLEFEBVRENEW\JDIData\DataEven|Sensor|LoLo">
				</path>
			</svg>
			<svg id="Trend1_MarkerGroup" height="2004" width="3819" style="" x="6" y="41">
				<circle id="Trend1_1" cx="753.691666666667" cy="1686.84449256825" r="8" style="stroke-width:2;stroke:#00FF00;fill:#00FF00;">
				</circle>
				<circle id="Trend1_1" cx="1528.1" cy="154.395493960606" r="8" style="stroke-width:2;stroke:#00FF00;fill:#00FF00;">
				</circle>
				<circle id="Trend1_1" cx="2291.9" cy="584.490134925321" r="8" style="stroke-width:2;stroke:#00FF00;fill:#00FF00;">
				</circle>
			</svg>
			<g id="Trend1_YScaleTextGroup" style="font-family:Arial;font-size:33;stroke:#FFFFFF;fill:#FFFFFF;" transform="translate(8,41)">
				<text id="Max_0" x="2" y="33">0.0944</text>
				<text id="Min_0" x="2" y="1998">-1.13489</text>
				<text x="0" y="1789.35196025008">-1</text>
				<text x="0" y="1463.31077200268">-0.8</text>
				<text x="0" y="1137.26958375529">-0.6</text>
				<text x="0" y="811.228395507899">-0.4</text>
				<text x="0" y="485.187207260505">-0.2</text>
				<text x="0" y="159.146019013112">0</text>
			</g>
		</svg>
	</g>
	<g id="Trend2" PB:Type="10">
		<PB:TrendLogical id="Trend2_Logical" PB:ValueScalePosition="1" PB:BackgroundColor="8421504" PB:CurrentTrace="3" PB:DisplayScaleInside="True" PB:EnableScript="True" PB:Enabled="True" PB:EndTime="*+1m" PB:FillColor="16711680" PB:FontBold="False" PB:FontItalic="False" PB:FontName="Arial" PB:FontSize="10" PB:FontStrikethrough="False" PB:FontUnderline="False" PB:Height="1492" PB:IsMultiState="False" PB:Left="-14746" PB:LineColor="16777215" PB:MultipleScales="False" PB:Name="Trend2" PB:PlotTimeStyle="0" PB:Rotation="0" PB:ShowDescription="False" PB:ShowEngUnits="True" PB:ShowGrids="True" PB:ShowTagName="True" PB:ShowServerName="False" PB:ShowTitle="True" PB:ShowTraceMarkers="False" PB:ShowValue="True" PB:StartTime="*-3m" PB:Top="12740" PB:TraceCount="3" PB:TrendTitle="Plot-0" PB:Visible="True" PB:Width="4710">
			<PB:TraceElem id="PB:TraceElem_1" PB:ShowLinearRegression="False" PB:ScaleLogarithmic="False" PB:ScaleMax="Autorange" PB:ScaleMin="Autorange" PB:Trace="AF2.\\JLEFEBVRENEW\JDIData\DataShort|Sensor" PB:ScaleFormat="General" PB:DisplayDigits="-5" PB:CanonicalNumberFormat="General" PB:TagInfoType="1">
			</PB:TraceElem>
			<PB:TraceElem id="PB:TraceElem_2" PB:ShowLinearRegression="False" PB:ScaleLogarithmic="False" PB:ScaleMax="Autorange" PB:ScaleMin="Autorange" PB:Trace="AF2.\\JLEFEBVRENEW\JDIData\DataShort|Sensor|HH" PB:ScaleFormat="General" PB:DisplayDigits="-5" PB:CanonicalNumberFormat="General" PB:TagInfoType="1">
			</PB:TraceElem>
			<PB:TraceElem id="PB:TraceElem_3" PB:ShowLinearRegression="False" PB:ScaleLogarithmic="False" PB:ScaleMax="Autorange" PB:ScaleMin="Autorange" PB:Trace="AF2.\\JLEFEBVRENEW\JDIData\DataShort|Sensor|LoLo" PB:ScaleFormat="General" PB:DisplayDigits="-5" PB:CanonicalNumberFormat="General" PB:TagInfoType="1">
			</PB:TraceElem>
			<PB:Format id="PB:Format_1" PB:Name="Horz. Axis" PB:LineColor="0" PB:LineStyle="0" PB:LineWidth="1" PB:MarkerStyle="-1">
			</PB:Format>
			<PB:Format id="PB:Format_2" PB:Name="Background" PB:LineColor="8421504" PB:LineStyle="-1" PB:LineWidth="1" PB:MarkerStyle="-1">
			</PB:Format>
			<PB:Format id="PB:Format_3" PB:Name="Horz. Major Grid" PB:LineColor="0" PB:LineStyle="0" PB:LineWidth="1" PB:MarkerStyle="-1">
			</PB:Format>
			<PB:Format id="PB:Format_4" PB:Name="Horz. Minor Grid" PB:LineColor="0" PB:LineStyle="0" PB:LineWidth="1" PB:MarkerStyle="-1">
			</PB:Format>
			<PB:Format id="PB:Format_5" PB:Name="Pen 1" PB:LineColor="65280" PB:LineStyle="0" PB:LineWidth="1" PB:MarkerStyle="0">
			</PB:Format>
			<PB:Format id="PB:Format_6" PB:Name="Pen 2" PB:LineColor="16776960" PB:LineStyle="0" PB:LineWidth="1" PB:MarkerStyle="1">
			</PB:Format>
			<PB:Format id="PB:Format_7" PB:Name="Pen 3" PB:LineColor="65535" PB:LineStyle="0" PB:LineWidth="1" PB:MarkerStyle="2">
			</PB:Format>
			<PB:Format id="PB:Format_8" PB:Name="Pen 4" PB:LineColor="16711935" PB:LineStyle="0" PB:LineWidth="1" PB:MarkerStyle="3">
			</PB:Format>
			<PB:Format id="PB:Format_9" PB:Name="Pen 5" PB:LineColor="255" PB:LineStyle="0" PB:LineWidth="1" PB:MarkerStyle="4">
			</PB:Format>
			<PB:Format id="PB:Format_10" PB:Name="Pen 6" PB:LineColor="16777215" PB:LineStyle="0" PB:LineWidth="1" PB:MarkerStyle="5">
			</PB:Format>
			<PB:Format id="PB:Format_11" PB:Name="Pen 7" PB:LineColor="16711680" PB:LineStyle="0" PB:LineWidth="1" PB:MarkerStyle="6">
			</PB:Format>
			<PB:Format id="PB:Format_12" PB:Name="Pen 8" PB:LineColor="0" PB:LineStyle="0" PB:LineWidth="1" PB:MarkerStyle="7">
			</PB:Format>
			<PB:Format id="PB:Format_13" PB:Name="Pen 9" PB:LineColor="8388608" PB:LineStyle="0" PB:LineWidth="1" PB:MarkerStyle="8">
			</PB:Format>
			<PB:Format id="PB:Format_14" PB:Name="Pen 10" PB:LineColor="32768" PB:LineStyle="0" PB:LineWidth="1" PB:MarkerStyle="9">
			</PB:Format>
			<PB:Format id="PB:Format_15" PB:Name="Pen 11" PB:LineColor="8388736" PB:LineStyle="0" PB:LineWidth="1" PB:MarkerStyle="10">
			</PB:Format>
			<PB:Format id="PB:Format_16" PB:Name="Pen 12" PB:LineColor="8433626" PB:LineStyle="0" PB:LineWidth="1" PB:MarkerStyle="11">
			</PB:Format>
			<PB:Format id="PB:Format_17" PB:Name="Text" PB:LineColor="16777215" PB:LineStyle="-1" PB:LineWidth="1" PB:MarkerStyle="-1">
			</PB:Format>
			<PB:Format id="PB:Format_18" PB:Name="Vert. Axis" PB:LineColor="0" PB:LineStyle="0" PB:LineWidth="1" PB:MarkerStyle="-1">
			</PB:Format>
			<PB:Format id="PB:Format_19" PB:Name="Vert. Major Grid" PB:LineColor="0" PB:LineStyle="0" PB:LineWidth="1" PB:MarkerStyle="-1">
			</PB:Format>
			<PB:Format id="PB:Format_20" PB:Name="Vert. Minor Grid" PB:LineColor="0" PB:LineStyle="0" PB:LineWidth="1" PB:MarkerStyle="-1">
			</PB:Format>
		</PB:TrendLogical>
		<svg id="Trend2_Graphical" height="1492" width="4710" x="254" y="2260">
			<PB:RefreshData id="Trend2_RefreshData" PB:bEngUnits="True" PB:bLogarithmic="False" PB:bMarkers="False" PB:bTagname="True" PB:bValue="True" PB:fXUnits="15.958333333333333333333333333" PB:iGrdBegX="6" PB:iGrdBegY="41" PB:iGrdHght="1400" PB:iGrdWdth="3830" PB:iMinPerCol="30" PB:iNumTrcs="3" PB:iNumXCols="0" PB:bGrids="True" PB:Updateable="True" PB:iSnglLnHght="33" PB:iScaleWidth="0" PB:bOmitScaleText="False" PB:bOmitTimeText="False">
			</PB:RefreshData>
			<rect id="Trend2_Background" x="0" y="0" width="4710" height="1492" fill="#808080">
			</rect>
			<g id="Trend2_PlotTitleGroup" style="font-family:Arial;font-size:33;stroke:#FFFFFF;fill:#FFFFFF;">
				<text x="6" y="33" style="font-family:Arial;font-size:33;stroke:#FFFFFF;fill:#FFFFFF;">Plot-0</text>
			</g>
			<svg id="Trend2_AxesGroup" height="1400" width="3830" x="6" y="41">
				<rect id="Trend2_GridBackground" x="0" y="0" width="3830" height="1400" style="fill:#808080;stroke:none;">
				</rect>
				<polyline id="Trend2_VertAxis_1" style="stroke-width:3;fill:none;stroke:#000000;" points="0,0 0,1400">
				</polyline>
				<polyline id="Trend2_VertAxis_Last" style="stroke-width:3;fill:none;stroke:#000000;stroke-dasharray:10 10 10 10;" points="3830,0 3830,1400">
				</polyline>
				<polyline id="Trend2_HorizAxis" style="stroke-width:3;fill:none;stroke:#000000;" points="0,1400 3830,1400">
				</polyline>
			</svg>
			<svg id="Trend2_GridGroup" height="1400" width="3830" x="6" y="41">
				<path id="Trend2_HorizGridLine" style="stroke-width:2;stroke:#000000;" d="M160,0 L160,1400">
				</path>
				<path id="Trend2_HorizGridLine" style="stroke-width:2;stroke:#000000;" d="M638,0 L638,1400">
				</path>
				<path id="Trend2_HorizGridLine" style="stroke-width:2;stroke:#000000;" d="M1117,0 L1117,1400">
				</path>
				<path id="Trend2_HorizGridLine" style="stroke-width:2;stroke:#000000;" d="M1596,0 L1596,1400">
				</path>
				<path id="Trend2_HorizGridLine" style="stroke-width:2;stroke:#000000;" d="M2075,0 L2075,1400">
				</path>
				<path id="Trend2_HorizGridLine" style="stroke-width:2;stroke:#000000;" d="M2553,0 L2553,1400">
				</path>
				<path id="Trend2_HorizGridLine" style="stroke-width:2;stroke:#000000;" d="M3032,0 L3032,1400">
				</path>
				<path id="Trend2_HorizGridLine" style="stroke-width:2;stroke:#000000;" d="M3511,0 L3511,1400">
				</path>
				<path id="Trend2_VertGridLine" style="stroke-width:2;stroke:#000000" d="M0,1321.27 L3830,1321.27">
				</path>
				<path id="Trend2_VertGridLine" style="stroke-width:2;stroke:#000000" d="M0,1077.19 L3830,1077.19">
				</path>
				<path id="Trend2_VertGridLine" style="stroke-width:2;stroke:#000000" d="M0,833.11 L3830,833.11">
				</path>
				<path id="Trend2_VertGridLine" style="stroke-width:2;stroke:#000000" d="M0,589.03 L3830,589.03">
				</path>
				<path id="Trend2_VertGridLine" style="stroke-width:2;stroke:#000000" d="M0,344.95 L3830,344.95">
				</path>
				<path id="Trend2_VertGridLine" style="stroke-width:2;stroke:#000000" d="M0,100.88 L3830,100.88">
				</path>
				<path id="Trend2_VertGridLine" style="stroke-width:2;stroke:#000000" d="M0,0 L3830,0">
				</path>
			</svg>
			<g id="Trend2_XScaleTextGroup" style="font-family:Arial;font-size:33;stroke:#FFFFFF;fill:#FFFFFF;">
				<text id="Trend2_XScaleTextBegin" x="6" y="1476" style="font-family:Arial;font-size:33;stroke:#FFFFFF;fill:#FFFFFF;">2016/04/28 16:59:20</text>
				<text id="Trend2_XScaleTextSpan" x="1771" y="1476" style="font-family:Arial;font-size:33;stroke:#FFFFFF;fill:#FFFFFF;">240.00 seconds</text>
				<text id="Trend2_XScaleTextEnd" x="3451" y="1476" style="font-family:Arial;font-size:33;stroke:#FFFFFF;fill:#FFFFFF;">2016/04/28 17:03:20</text>
			</g>
			<g id="Trend2_TagNameGroup" transform="translate(3862,43)">
				<circle id="Trend2_0" cx="0.5" cy="17" r="8" style="stroke-width:2;stroke:#00FF00;fill:#00FF00;">
				</circle>
				<text id="Trend2_TagName0" x="19.1860465116279" y="33" style="font-family:Arial;font-size:33;stroke:#00FF00;fill:#00FF00;">DataShort.Sensor</text>
				<text id="Trend2_TagValue0" x="19.1860465116279" y="68" style="font-family:Arial;font-size:33;stroke:#00FF00;fill:#00FF00;">0.74424</text>
				<text id="Trend2_EngUnits0" x="19.1860465116279" y="103" style="font-family:Arial;font-size:33;stroke:#00FF00;fill:#00FF00;">
				</text>
				<circle id="Trend2_1" cx="0.5" cy="122" r="8" style="stroke-width:2;stroke:#00FFFF;fill:none;">
				</circle>
				<text id="Trend2_TagName1" x="19.1860465116279" y="138" style="font-family:Arial;font-size:33;stroke:#00FFFF;fill:#00FFFF;">OSIDemo_DataShort.HH</text>
				<text id="Trend2_TagValue1" x="19.1860465116279" y="173" style="font-family:Arial;font-size:33;stroke:#00FFFF;fill:#00FFFF;">No Data</text>
				<text id="Trend2_EngUnits1" x="19.1860465116279" y="208" style="font-family:Arial;font-size:33;stroke:#00FFFF;fill:#00FFFF;">
				</text>
				<polygon id="Trend2_2" points="-5.5,221 6.5,221 6.5,233 -5.5,233 -5.5,221" style="stroke-width:2;stroke:#FFFF00;fill:#FFFF00;" transform="rotate(45,0.5,227) ">
				</polygon>
				<text id="Trend2_TagName2" x="19.1860465116279" y="243" style="font-family:Arial;font-size:33;stroke:#FFFF00;fill:#FFFF00;">OSIDemo_DataShort.LoLo</text>
				<text id="Trend2_TagValue2" x="19.1860465116279" y="278" style="font-family:Arial;font-size:33;stroke:#FFFF00;fill:#FFFF00;">No Data</text>
				<text id="Trend2_EngUnits2" x="19.1860465116279" y="313" style="font-family:Arial;font-size:33;stroke:#FFFF00;fill:#FFFF00;">
				</text>
			</g>
			<svg id="Trend2_TraceGroup" height="1400" width="3830" style="font-family:Arial;font-size:33;stroke:#FFFFFF;fill:#FFFFFF;" x="6" y="41">
				<path id="Trend2_Plot0" style="font-family:Arial;font-size:33;stroke:#00FF00;fill:none;stroke-width:2;" d="M-31.9166666666667,164.654158801265 L-15.9583333333333,195.551353845358 L0,207.099541896675 L15.9583333333333,265.204643567652 L31.9166666666667,414.524888086725 L47.875,403.499060583179 L63.8333333333333,603.326975198613 L79.7916666666667,668.337016080359 L95.75,726.873628900684 L111.708333333333,1002.49554733634 L127.666666666667,1145.25450877399 L143.625,1120.50490336858 L159.583333333333,1333.65529116427 L175.541666666667,1321.26613182885 L191.5,1321.26613182885 L207.458333333333,1321.26613182885 L223.416666666667,1321.26613182885 L239.375,1321.26613182885 L255.333333333333,1321.26613182885 L271.291666666667,1321.26613182885 L287.25,1321.26613182885 L303.208333333333,1321.26613182885 L319.166666666667,1321.26613182885 L335.125,1321.26613182885 L351.083333333333,1321.26613182885 L367.041666666667,1321.26613182885 L383,1321.26613182885 L398.958333333333,1321.26613182885 L414.916666666667,1321.26613182885 L430.875,1321.26613182885 L446.833333333333,1321.26613182885 L462.791666666667,1321.26613182885 L478.75,1321.26613182885 L494.708333333333,1321.26613182885 L510.666666666667,1321.26613182885 L526.625,1321.26613182885 L542.583333333333,1321.26613182885 L558.541666666667,1321.26613182885 L574.5,1321.26613182885 L590.458333333333,1321.26613182885 L606.416666666667,1321.26613182885 L622.375,1321.26613182885 L638.333333333333,1372.30427527262 L654.291666666667,1153.12752781929 L670.25,1146.38340936402 L686.208333333333,863.763170859511 L702.166666666667,862.899131628044 L718.125,757.462221212925 L734.083333333333,498.69422156951 L750.041666666667,483.704585633061 L766,379.887374770365 L781.958333333333,276.847336155933 L797.916666666667,248.809064138418 L813.875,171.352047798529 L829.833333333333,89.8981861908262 L845.791666666667,230.159683219796 L861.75,3.90712959153793 L877.708333333333,87.1381666596988 L893.666666666667,179.550487712893 L909.625,196.767753396953 L925.583333333333,221.040688002344 L941.541666666667,217.959510408739 L957.5,270.428466673324 L973.458333333333,363.89913915564 L989.416666666667,453.899972214374 L1005.375,460.329853297768 L1021.33333333333,639.421186923671 L1037.29166666667,773.505223605337 L1053.25,911.798188812347 L1069.20833333333,928.621652154348 L1085.16666666667,1182.43958992256 L1101.125,1244.75834747492 L1117.08333333333,1400 L1133.04166666667,1321.26613182885 L1149,1321.26613182885 L1164.95833333333,1321.26613182885 L1180.91666666667,1321.26613182885 L1196.875,1321.26613182885 L1212.83333333333,1321.26613182885 L1228.79166666667,1321.26613182885 L1244.75,1321.26613182885 L1260.70833333333,1321.26613182885 L1276.66666666667,1321.26613182885 L1292.625,1321.26613182885 L1308.58333333333,1321.26613182885 L1324.54166666667,1321.26613182885 L1340.5,1321.26613182885 L1356.45833333333,1321.26613182885 L1372.41666666667,1321.26613182885 L1388.375,1321.26613182885 L1404.33333333333,1321.26613182885 L1420.29166666667,1321.26613182885 L1436.25,1321.26613182885 L1452.20833333333,1321.26613182885 L1468.16666666667,1321.26613182885 L1484.125,1321.26613182885 L1500.08333333333,1321.26613182885 L1516.04166666667,1321.26613182885 L1532,1321.26613182885 L1547.95833333333,1321.26613182885 L1563.91666666667,1321.26613182885 L1579.875,1321.26613182885 L1595.83333333333,1257.89265897816 L1611.79166666667,1136.70164095265 L1627.75,1083.22059507577 L1643.70833333333,979.043661852376 L1659.66666666667,879.686122015828 L1675.625,773.488140411615 L1691.58333333333,552.219814704391 L1707.54166666667,473.521916570334 L1723.5,327.649563326843 L1739.45833333333,268.196697609188 L1755.41666666667,286.702813828856 L1771.375,130.636913063182 L1787.33333333333,106.396853564925 L1803.29166666667,58.4463440529979 L1819.25,0 L1835.20833333333,203.431543519333 L1851.16666666667,95.6163425667632 L1867.125,141.49777465033 L1883.08333333333,184.019405956308 L1899.04166666667,224.933422423753 L1915,268.735815142483 L1930.95833333333,240.578158593947 L1946.91666666667,431.862305796003 L1962.875,448.331429510394 L1978.83333333333,714.294266576752 L1994.79166666667,740.842227091511 L2010.75,816.539908188113 L2026.70833333333,930.485822348098 L2042.66666666667,989.412492052454 L2058.625,1235.55851482271 L2074.58333333333,1320.67285111863 L2090.54166666667,1321.26613182885 L2106.5,1321.26613182885 L2122.45833333333,1321.26613182885 L2138.41666666667,1321.26613182885 L2154.375,1321.26613182885 L2170.33333333333,1321.26613182885 L2186.29166666667,1321.26613182885 L2202.25,1321.26613182885 L2218.20833333333,1321.26613182885 L2234.16666666667,1321.26613182885 L2250.125,1321.26613182885 L2266.08333333333,1321.26613182885 L2282.04166666667,1321.26613182885 L2298,1321.26613182885 L2313.95833333333,1321.26613182885 L2329.91666666667,1321.26613182885 L2345.875,1321.26613182885 L2361.83333333333,1321.26613182885 L2377.79166666667,1321.26613182885 L2393.75,1321.26613182885 L2409.70833333333,1321.26613182885 L2425.66666666667,1321.26613182885 L2441.625,1321.26613182885 L2457.58333333333,1321.26613182885 L2473.54166666667,1321.26613182885 L2489.5,1321.26613182885 L2505.45833333333,1321.26613182885 L2521.41666666667,1321.26613182885 L2537.375,1321.26613182885 L2553.33333333333,1285.5911621131 L2569.29166666667,1282.33860309901 L2585.25,1047.49004979862 L2601.20833333333,958.923739113574 L2617.16666666667,841.215319324371 L2633.125,729.185116248146 L2649.08333333333,584.963741966953 L2665.04166666667,571.020343844067 L2681,413.004758381225 L2872.5,413.004758381225 " PBD:DatasetName="AF2_DS" PBD:DatasetColumn="\\JLEFEBVRENEW\JDIData\DataShort|Sensor">
				</path>
				<path id="Trend2_Plot1" style="font-family:Arial;font-size:33;stroke:#00FFFF;fill:none;stroke-width:2;" d="" PBD:DatasetName="AF2_DS" PBD:DatasetColumn="\\JLEFEBVRENEW\JDIData\DataShort|Sensor|HH">
				</path>
				<path id="Trend2_Plot2" style="font-family:Arial;font-size:33;stroke:#FFFF00;fill:none;stroke-width:2;" d="" PBD:DatasetName="AF2_DS" PBD:DatasetColumn="\\JLEFEBVRENEW\JDIData\DataShort|Sensor|LoLo">
				</path>
			</svg>
			<svg id="Trend2_MarkerGroup" height="1400" width="3830" style="" x="6" y="41">
				<circle id="Trend2_1" cx="638.833333333333" cy="1372.80427527262" r="8" style="stroke-width:2;stroke:#00FF00;fill:#00FF00;">
				</circle>
				<circle id="Trend2_1" cx="1325.04166666667" cy="1321.76613182885" r="8" style="stroke-width:2;stroke:#00FF00;fill:#00FF00;">
				</circle>
				<circle id="Trend2_1" cx="1995.29166666667" cy="741.342227091511" r="8" style="stroke-width:2;stroke:#00FF00;fill:#00FF00;">
				</circle>
			</svg>
			<g id="Trend2_YScaleTextGroup" style="font-family:Arial;font-size:33;stroke:#FFFFFF;fill:#FFFFFF;" transform="translate(8,41)">
				<text id="Max_0" x="2" y="33">1.08266</text>
				<text id="Min_0" x="2" y="1394">-0.06452</text>
				<text x="0" y="1326.51665688135">0</text>
				<text x="0" y="1082.43848304806">0.2</text>
				<text x="0" y="838.360309214775">0.4</text>
				<text x="0" y="594.282135381488">0.6</text>
				<text x="0" y="350.203961548201">0.8</text>
				<text x="0" y="106.125787714913">1</text>
			</g>
		</svg>
	</g>
	<script language="JavaScript" type="text/javascript"> 
        
        function SVG_doc_loaded(evt)
	{
	    var parentDoc = evt.getTarget().getOwnerDocument();
	    var elem = parentDoc.createElement("Ready");
	    evt.getTarget().appendChild(elem);

        }</script>
</svg>
